<svg width="804" height="535" viewBox="0 0 804 535" fill="none" xmlns="http://www.w3.org/2000/svg">
<path d="M510.175 297.055C512.986 296.467 515.454 294.798 517.047 292.407C518.639 290.017 519.228 287.096 518.686 284.275C518.565 283.652 518.389 283.041 518.16 282.449L547.362 257.276L528.27 251.875L503.467 276.608C500.861 277.85 498.849 280.068 497.866 282.782C496.883 285.497 497.008 288.489 498.213 291.112C499.237 293.312 500.979 295.099 503.152 296.18C505.326 297.26 507.802 297.568 510.175 297.055Z" fill="#FFB6B6"/>
<path d="M699.803 475.574L700.865 451.709C711.929 445.795 724.27 442.671 736.816 442.608C719.549 456.725 721.707 483.938 710.001 502.921C706.304 508.814 701.329 513.8 695.444 517.509C689.558 521.217 682.914 523.554 676.003 524.346L661.553 533.193C659.571 522.14 660.008 510.788 662.835 499.92C665.662 489.052 670.811 478.926 677.928 470.239C681.969 465.406 686.603 461.101 691.719 457.425C695.18 466.55 699.803 475.574 699.803 475.574Z" fill="#E5F4DF"/>
<path d="M662.573 520.912L649.489 520.911L643.264 470.445L662.575 470.446L662.573 520.912Z" fill="#FFB6B6"/>
<path d="M665.909 533.594L623.722 533.593V533.059C623.722 528.704 625.452 524.528 628.532 521.448C631.611 518.369 635.787 516.639 640.142 516.639H640.143L647.849 510.792L662.227 516.64L665.91 516.64L665.909 533.594Z" fill="#2F2E41"/>
<path d="M601.787 520.912L588.704 520.911L582.479 470.445L601.79 470.446L601.787 520.912Z" fill="#FFB6B6"/>
<path d="M605.124 533.594L562.937 533.593V533.059C562.937 528.704 564.667 524.528 567.746 521.448C570.826 518.369 575.002 516.639 579.357 516.639H579.358L587.064 510.792L601.442 516.64L605.125 516.64L605.124 533.594Z" fill="#2F2E41"/>
<path d="M596.125 245.01L681.227 247.138C697.39 255.916 697.636 274.917 692.34 297.476C692.34 297.476 694.127 310.884 690.552 314.46C686.976 318.036 685.189 318.036 686.976 324.293C688.764 330.55 679.318 340.77 680.466 341.917C681.613 343.065 684.295 349.322 684.295 349.322L675.356 400.274C675.356 400.274 669.098 488.77 667.311 490.557C665.523 492.345 663.735 490.557 665.523 495.027C667.311 499.496 669.098 497.708 667.311 499.496C665.727 501.204 664.235 502.994 662.841 504.86H641.229C641.229 504.86 639.6 495.921 639.6 495.027C639.6 494.133 637.812 488.77 637.812 487.876C637.812 486.982 639.392 485.402 639.392 485.402C639.938 483.584 640.307 481.719 640.494 479.831C640.494 478.043 645.857 409.213 645.857 409.213L635.13 319.823L609.207 407.425C609.207 407.425 609.207 484.3 607.42 486.088C605.632 487.876 605.632 486.982 606.526 490.557C607.42 494.133 610.995 493.239 608.314 495.921C605.632 498.602 604.738 494.133 605.632 498.602L606.526 503.072L579.709 503.455C579.709 503.455 576.133 495.921 577.921 493.239C579.709 490.557 579.602 491.289 577.421 486.901C575.239 482.512 574.346 481.618 575.239 480.724C576.133 479.831 576.133 475.076 576.133 475.076L580.603 389.547C580.603 389.547 581.497 299.264 581.497 296.582C581.564 295.202 581.31 293.826 580.754 292.561V288.921L584.178 276.023L596.125 245.01Z" fill="#2F2E41"/>
<path d="M509.19 268.019L523.573 279.618L601.98 218.84L597.341 113.06C592.931 116.588 589.265 120.955 586.554 125.908C583.842 130.862 582.14 136.304 581.546 141.92L568.112 201.674L509.19 268.019Z" fill="#E6E6E6"/>
<path d="M583.422 271.73C611.176 275.277 636.748 264.531 660.902 256.42C671.806 252.758 682.791 256.581 692.915 250.389C688.537 207.272 692.787 158.705 702.086 106.948C702.616 104.018 702.063 100.995 700.528 98.4435C698.994 95.8916 696.584 93.9851 693.747 93.0796L663.784 84.4831L654.559 74.3064L630.734 80.3546L622.394 95.4296L593.733 114.795C592.061 115.925 590.75 117.513 589.958 119.37C589.167 121.227 588.929 123.273 589.273 125.262C597.883 173.937 595.888 223.897 583.422 271.73Z" fill="#E6E6E6"/>
<path d="M672.001 285.076C674.545 283.743 676.464 281.464 677.343 278.729C678.223 275.995 677.993 273.025 676.702 270.458C676.415 269.892 676.079 269.352 675.697 268.845L696.922 236.659L677.081 236.672L659.968 267.234C657.8 269.141 656.47 271.824 656.265 274.703C656.059 277.583 656.996 280.427 658.871 282.622C660.456 284.46 662.62 285.704 665.006 286.15C667.392 286.596 669.858 286.217 672.001 285.076Z" fill="#FFB6B6"/>
<path d="M666.006 255.029L678.996 271.731L724.464 203.994L720.531 135.178C720.03 126.413 717.321 117.917 712.655 110.481C707.988 103.045 701.517 96.9097 693.843 92.6462L694.771 198.427L666.006 255.029Z" fill="#E6E6E6"/>
<path d="M633.361 70.3694C649.42 70.3694 662.437 57.3515 662.437 41.2932C662.437 25.2349 649.42 12.217 633.361 12.217C617.303 12.217 604.285 25.2349 604.285 41.2932C604.285 57.3515 617.303 70.3694 633.361 70.3694Z" fill="#FFB6B6"/>
<path d="M614.836 24.229C615.961 24.2378 617.081 24.3848 618.17 24.6666C620.317 25.1828 622.498 25.5485 624.696 25.7609C631.427 26.3942 637.752 29.2649 642.66 33.9144C647.569 38.5639 650.777 44.7242 651.774 51.4112C653.463 49.9381 657.308 47.2285 660.459 49.7468C660.507 49.7868 660.535 49.8073 660.646 49.7548C662.738 48.7621 666.453 36.5424 666.566 25.7832C666.625 20.0726 665.726 12.7805 661.108 10.4712L660.864 10.3495L660.8 10.0851C660.492 8.80051 657.044 6.60778 651.053 4.90111C640.164 1.79964 623.933 -4.2421 614.793 4.64936C614.101 7.64688 611.851 14.0616 609.578 14.7887C607.06 15.5935 604.887 16.288 604.544 19.3758C604.258 23.7699 604.278 28.1787 604.606 32.5699C605.459 29.8828 607.133 27.531 609.393 25.8455C611 24.7637 612.899 24.1997 614.836 24.229Z" fill="#2F2E41"/>
<path d="M331.518 93.8314L222.373 118.387C219.449 119.048 216.906 120.842 215.303 123.376C213.7 125.91 213.168 128.976 213.823 131.901L243.751 264.929L371.989 236.078C373.043 235.845 374.007 235.313 374.767 234.546L345.032 102.382C344.371 99.4577 342.577 96.9152 340.043 95.3122C337.509 93.7092 334.443 93.1767 331.518 93.8314Z" fill="#E6E6E6"/>
<path d="M291.871 112.149L232.057 125.606C229.394 126.208 227.079 127.841 225.618 130.148C224.158 132.454 223.672 135.246 224.268 137.911L252.406 262.982L366.3 237.358L345.808 146.274C343.168 134.603 336.007 124.456 325.896 118.059C315.784 111.661 303.547 109.536 291.871 112.149Z" fill="white"/>
<path d="M344.398 230.616L269.311 247.509C268.989 247.581 268.684 247.716 268.414 247.905C268.144 248.095 267.915 248.336 267.738 248.614C267.561 248.893 267.442 249.204 267.385 249.528C267.329 249.853 267.337 250.186 267.409 250.508C267.482 250.83 267.617 251.134 267.807 251.404C267.997 251.673 268.239 251.903 268.517 252.079C268.796 252.255 269.107 252.374 269.432 252.43C269.757 252.486 270.09 252.477 270.412 252.404L345.499 235.511C345.821 235.439 346.126 235.305 346.396 235.115C346.666 234.926 346.896 234.685 347.073 234.406C347.25 234.127 347.37 233.817 347.426 233.491C347.483 233.166 347.475 232.833 347.402 232.511C347.33 232.189 347.195 231.885 347.004 231.615C346.814 231.346 346.572 231.116 346.293 230.94C346.014 230.764 345.703 230.645 345.378 230.589C345.052 230.534 344.719 230.543 344.398 230.616Z" fill="#E4E4E4"/>
<path d="M342.22 220.937L267.133 237.83C266.483 237.976 265.918 238.374 265.562 238.937C265.206 239.5 265.088 240.181 265.234 240.831C265.38 241.481 265.779 242.046 266.341 242.402C266.904 242.758 267.585 242.876 268.235 242.73L343.322 225.837C343.644 225.764 343.948 225.629 344.218 225.439C344.487 225.249 344.717 225.008 344.893 224.729C345.069 224.451 345.189 224.14 345.245 223.815C345.301 223.49 345.293 223.157 345.221 222.836C345.148 222.514 345.013 222.21 344.823 221.94C344.633 221.671 344.392 221.441 344.113 221.265C343.835 221.088 343.524 220.969 343.199 220.913C342.874 220.856 342.541 220.865 342.22 220.937Z" fill="#E4E4E4"/>
<path d="M297.505 220.833L264.956 228.156C264.307 228.302 263.743 228.7 263.387 229.262C263.031 229.824 262.914 230.505 263.06 231.154C263.206 231.803 263.604 232.367 264.166 232.723C264.728 233.079 265.409 233.196 266.058 233.05L298.607 225.728C298.929 225.656 299.234 225.522 299.504 225.332C299.774 225.142 300.004 224.901 300.181 224.623C300.357 224.344 300.478 224.033 300.534 223.708C300.591 223.383 300.582 223.05 300.51 222.728C300.438 222.406 300.302 222.102 300.112 221.832C299.922 221.563 299.68 221.333 299.401 221.157C299.122 220.981 298.811 220.862 298.485 220.806C298.16 220.751 297.827 220.76 297.505 220.833Z" fill="#E4E4E4"/>
<path d="M335.484 190.995L260.397 207.888C260.075 207.96 259.771 208.096 259.501 208.285C259.232 208.475 259.002 208.717 258.826 208.995C258.47 209.558 258.352 210.239 258.498 210.889C258.644 211.539 259.043 212.104 259.606 212.46C260.168 212.816 260.849 212.934 261.499 212.788L336.586 195.895C336.908 195.822 337.212 195.687 337.482 195.497C337.751 195.307 337.981 195.066 338.157 194.787C338.333 194.509 338.453 194.198 338.509 193.873C338.565 193.548 338.557 193.215 338.485 192.894C338.412 192.572 338.277 192.268 338.087 191.998C337.897 191.729 337.656 191.499 337.378 191.323C337.099 191.147 336.788 191.027 336.463 190.971C336.138 190.914 335.806 190.923 335.484 190.995Z" fill="#E4E4E4"/>
<path d="M333.307 181.321L258.22 198.214C257.898 198.286 257.593 198.42 257.324 198.61C257.054 198.799 256.824 199.04 256.647 199.319C256.471 199.597 256.351 199.908 256.294 200.233C256.238 200.558 256.246 200.891 256.318 201.213C256.391 201.534 256.526 201.839 256.716 202.108C256.906 202.378 257.148 202.607 257.427 202.783C257.706 202.959 258.016 203.079 258.342 203.134C258.667 203.19 258.999 203.181 259.321 203.108L334.408 186.215C334.73 186.143 335.034 186.009 335.304 185.819C335.573 185.629 335.803 185.388 335.979 185.11C336.155 184.831 336.275 184.521 336.331 184.196C336.388 183.871 336.379 183.538 336.307 183.217C336.235 182.895 336.1 182.591 335.91 182.322C335.72 182.052 335.479 181.823 335.2 181.647C334.921 181.471 334.611 181.351 334.286 181.295C333.961 181.24 333.628 181.248 333.307 181.321Z" fill="#E4E4E4"/>
<path d="M288.592 181.211L256.043 188.534C255.721 188.607 255.417 188.742 255.147 188.932C254.878 189.122 254.648 189.363 254.472 189.641C254.296 189.92 254.176 190.231 254.12 190.556C254.064 190.881 254.072 191.213 254.144 191.535C254.217 191.857 254.352 192.161 254.542 192.431C254.732 192.7 254.973 192.93 255.252 193.106C255.53 193.282 255.841 193.402 256.166 193.458C256.491 193.515 256.824 193.506 257.145 193.434L289.694 186.111C290.016 186.039 290.32 185.904 290.59 185.714C290.859 185.524 291.089 185.282 291.265 185.004C291.441 184.725 291.561 184.414 291.617 184.089C291.674 183.765 291.665 183.432 291.593 183.11C291.52 182.788 291.385 182.484 291.195 182.214C291.005 181.945 290.764 181.715 290.486 181.539C290.207 181.363 289.896 181.243 289.571 181.187C289.246 181.131 288.914 181.139 288.592 181.211Z" fill="#E4E4E4"/>
<path d="M326.57 151.374L251.483 168.267C250.833 168.413 250.268 168.811 249.912 169.374C249.556 169.937 249.438 170.618 249.584 171.268C249.73 171.917 250.129 172.482 250.691 172.839C251.254 173.195 251.935 173.313 252.585 173.166L327.672 156.273C327.994 156.201 328.298 156.066 328.568 155.876C328.837 155.686 329.067 155.445 329.243 155.166C329.419 154.887 329.539 154.577 329.595 154.252C329.651 153.927 329.643 153.594 329.571 153.272C329.498 152.951 329.363 152.646 329.173 152.377C328.983 152.107 328.742 151.878 328.463 151.702C328.185 151.525 327.874 151.406 327.549 151.349C327.224 151.293 326.891 151.301 326.57 151.374Z" fill="#E6E6E6"/>
<path d="M324.393 141.699L249.306 158.592C248.984 158.665 248.68 158.8 248.411 158.99C248.141 159.18 247.912 159.421 247.735 159.699C247.379 160.262 247.261 160.943 247.407 161.593C247.554 162.243 247.952 162.808 248.515 163.164C249.077 163.52 249.759 163.638 250.408 163.492L325.495 146.599C325.817 146.526 326.121 146.391 326.391 146.201C326.66 146.011 326.89 145.77 327.066 145.491C327.242 145.213 327.362 144.902 327.418 144.577C327.475 144.252 327.466 143.92 327.394 143.598C327.322 143.276 327.187 142.972 326.997 142.702C326.807 142.433 326.565 142.203 326.287 142.027C326.008 141.851 325.697 141.731 325.372 141.675C325.048 141.618 324.715 141.627 324.393 141.699Z" fill="#E6E6E6"/>
<path d="M279.678 141.591L247.129 148.913C246.479 149.06 245.914 149.458 245.558 150.021C245.202 150.583 245.084 151.265 245.23 151.914C245.376 152.564 245.775 153.129 246.337 153.485C246.9 153.841 247.581 153.959 248.231 153.813L280.78 146.49C281.102 146.418 281.406 146.283 281.676 146.093C281.945 145.903 282.175 145.661 282.351 145.383C282.527 145.104 282.647 144.794 282.703 144.469C282.759 144.144 282.751 143.811 282.679 143.489C282.606 143.167 282.471 142.863 282.281 142.594C282.091 142.324 281.85 142.095 281.572 141.918C281.293 141.742 280.982 141.622 280.657 141.566C280.332 141.51 280 141.518 279.678 141.591Z" fill="#E6E6E6"/>
<path d="M113.773 248.178C113.062 248.179 112.38 248.462 111.877 248.965C111.374 249.468 111.091 250.151 111.09 250.862V528.348C111.091 529.059 111.374 529.742 111.877 530.245C112.38 530.748 113.062 531.031 113.773 531.032H461.685C462.397 531.031 463.079 530.748 463.582 530.245C464.085 529.741 464.368 529.059 464.368 528.348V295.404C464.368 294.693 464.085 294.011 463.582 293.508C463.079 293.004 462.397 292.721 461.685 292.72H262.007C259.98 292.722 258.025 291.967 256.526 290.603L211.635 249.815C210.477 248.761 208.967 248.177 207.402 248.178H113.773Z" fill="#3F3D56"/>
<path d="M528.975 175.601L342.687 95.5133C337.692 93.3727 332.052 93.3008 327.004 95.3133C321.956 97.3259 317.913 101.258 315.76 106.248L218.147 333.301L437.024 427.4C438.819 428.178 440.8 428.423 442.73 428.105L539.71 202.528C541.85 197.533 541.922 191.893 539.91 186.845C537.897 181.797 533.965 177.754 528.975 175.601Z" fill="#E6E6E6"/>
<path d="M451.307 160.3L349.217 116.41C344.669 114.46 339.533 114.394 334.936 116.225C330.339 118.056 326.656 121.636 324.695 126.179L232.92 339.652L427.315 423.225L494.15 267.763C502.693 247.828 502.981 225.319 494.949 205.173C486.917 185.027 471.222 168.889 451.307 160.3Z" fill="white"/>
<path d="M402.347 390.029L274.189 334.932C273.64 334.695 273.05 334.568 272.452 334.56C271.855 334.551 271.261 334.66 270.706 334.881C270.15 335.102 269.644 335.43 269.215 335.847C268.787 336.264 268.445 336.761 268.209 337.31C267.973 337.859 267.847 338.449 267.84 339.047C267.832 339.645 267.942 340.238 268.164 340.793C268.386 341.348 268.715 341.854 269.132 342.282C269.55 342.709 270.048 343.051 270.597 343.286L398.756 398.383C399.304 398.62 399.895 398.747 400.492 398.755C401.09 398.764 401.683 398.655 402.239 398.434C402.794 398.213 403.3 397.885 403.729 397.468C404.157 397.051 404.499 396.554 404.735 396.005C404.971 395.456 405.097 394.865 405.105 394.268C405.112 393.67 405.002 393.077 404.78 392.522C404.559 391.967 404.229 391.461 403.812 391.033C403.395 390.606 402.897 390.264 402.347 390.029Z" fill="#E4E4E4"/>
<path d="M409.449 373.509L281.291 318.411C280.182 317.935 278.929 317.919 277.808 318.366C276.687 318.813 275.79 319.687 275.313 320.795C274.837 321.904 274.82 323.157 275.267 324.278C275.713 325.399 276.587 326.297 277.695 326.774L405.854 381.871C406.403 382.107 406.993 382.233 407.591 382.241C408.189 382.249 408.782 382.139 409.337 381.918C409.892 381.696 410.399 381.368 410.827 380.951C411.255 380.534 411.597 380.037 411.833 379.487C412.069 378.938 412.195 378.348 412.203 377.75C412.211 377.153 412.101 376.559 411.879 376.004C411.658 375.449 411.33 374.943 410.913 374.515C410.496 374.086 409.998 373.745 409.449 373.509Z" fill="#E4E4E4"/>
<path d="M343.944 325.782L288.39 301.899C287.841 301.662 287.251 301.536 286.654 301.528C286.056 301.519 285.463 301.629 284.908 301.85C284.353 302.071 283.847 302.399 283.419 302.816C282.991 303.232 282.649 303.729 282.413 304.278C282.177 304.827 282.052 305.417 282.044 306.014C282.036 306.612 282.146 307.205 282.367 307.76C282.589 308.315 282.918 308.82 283.335 309.248C283.752 309.676 284.249 310.017 284.798 310.253L340.353 334.137C340.901 334.373 341.491 334.499 342.089 334.507C342.686 334.516 343.279 334.406 343.834 334.185C344.389 333.964 344.895 333.636 345.323 333.219C345.751 332.803 346.093 332.306 346.329 331.757C346.565 331.208 346.691 330.618 346.698 330.021C346.706 329.423 346.596 328.83 346.375 328.275C346.153 327.721 345.825 327.215 345.408 326.787C344.991 326.359 344.493 326.018 343.944 325.782Z" fill="#E4E4E4"/>
<path d="M431.42 322.403L303.262 267.306C302.153 266.831 300.901 266.815 299.781 267.262C298.661 267.71 297.764 268.583 297.288 269.691C296.811 270.8 296.794 272.052 297.24 273.172C297.686 274.293 298.559 275.191 299.667 275.668L427.825 330.766C428.375 331.003 428.965 331.129 429.563 331.138C430.161 331.147 430.755 331.037 431.311 330.816C431.867 330.595 432.374 330.266 432.803 329.849C433.232 329.432 433.574 328.934 433.81 328.385C434.046 327.835 434.172 327.244 434.18 326.646C434.188 326.048 434.077 325.454 433.855 324.899C433.633 324.343 433.304 323.837 432.886 323.409C432.468 322.98 431.97 322.639 431.42 322.403Z" fill="#E4E4E4"/>
<path d="M438.519 305.891L310.36 250.793C309.811 250.557 309.221 250.43 308.624 250.421C308.026 250.413 307.432 250.522 306.877 250.743C306.322 250.964 305.815 251.292 305.387 251.709C304.958 252.126 304.616 252.623 304.38 253.172C304.144 253.721 304.019 254.311 304.011 254.909C304.003 255.506 304.114 256.1 304.335 256.655C304.557 257.21 304.886 257.716 305.304 258.143C305.721 258.571 306.219 258.912 306.768 259.148L434.927 314.245C435.476 314.482 436.066 314.608 436.664 314.617C437.261 314.626 437.855 314.517 438.41 314.296C438.965 314.075 439.472 313.747 439.9 313.33C440.329 312.913 440.671 312.416 440.907 311.867C441.143 311.318 441.268 310.727 441.276 310.13C441.284 309.532 441.174 308.939 440.952 308.384C440.73 307.829 440.401 307.323 439.983 306.895C439.566 306.467 439.068 306.126 438.519 305.891Z" fill="#E4E4E4"/>
<path d="M373.018 258.157L317.463 234.273C316.354 233.797 315.102 233.78 313.981 234.228C312.86 234.675 311.962 235.549 311.486 236.657C311.009 237.766 310.992 239.019 311.439 240.14C311.886 241.261 312.759 242.158 313.868 242.635L369.422 266.519C369.972 266.756 370.562 266.882 371.16 266.89C371.758 266.898 372.351 266.788 372.906 266.567C373.462 266.346 373.968 266.017 374.397 265.6C374.825 265.183 375.167 264.686 375.403 264.136C375.639 263.587 375.765 262.997 375.773 262.399C375.781 261.801 375.671 261.208 375.449 260.652C375.228 260.097 374.899 259.591 374.482 259.163C374.064 258.734 373.567 258.393 373.018 258.157Z" fill="#E4E4E4"/>
<path d="M460.494 254.778L332.335 199.68C331.227 199.206 329.975 199.19 328.855 199.638C327.735 200.085 326.839 200.959 326.362 202.067C325.886 203.175 325.869 204.426 326.315 205.547C326.76 206.667 327.633 207.565 328.74 208.043L456.899 263.141C457.448 263.377 458.038 263.503 458.636 263.511C459.234 263.519 459.827 263.409 460.383 263.188C460.938 262.967 461.444 262.638 461.873 262.221C462.301 261.804 462.643 261.307 462.879 260.758C463.115 260.208 463.241 259.618 463.249 259.02C463.257 258.422 463.147 257.829 462.925 257.274C462.704 256.718 462.375 256.212 461.958 255.784C461.541 255.356 461.043 255.014 460.494 254.778Z" fill="#006B44"/>
<path d="M467.592 238.266L339.434 183.168C338.325 182.693 337.073 182.678 335.953 183.125C334.833 183.572 333.936 184.446 333.459 185.554C332.983 186.662 332.966 187.914 333.412 189.035C333.858 190.156 334.731 191.053 335.838 191.531L463.997 246.628C464.547 246.867 465.138 246.994 465.736 247.003C466.335 247.013 466.93 246.904 467.486 246.683C468.043 246.462 468.55 246.133 468.98 245.716C469.409 245.298 469.752 244.8 469.988 244.25C470.225 243.7 470.35 243.109 470.358 242.51C470.366 241.911 470.255 241.317 470.032 240.761C469.81 240.205 469.48 239.698 469.061 239.27C468.642 238.842 468.143 238.501 467.592 238.266Z" fill="#006B44"/>
<path d="M402.091 190.531L346.537 166.648C345.428 166.171 344.175 166.155 343.054 166.602C341.934 167.049 341.036 167.923 340.559 169.032C340.083 170.141 340.066 171.393 340.513 172.514C340.959 173.635 341.833 174.533 342.941 175.01L398.496 198.894C399.045 199.13 399.636 199.256 400.233 199.264C400.831 199.273 401.425 199.163 401.98 198.942C402.536 198.72 403.042 198.392 403.47 197.975C403.899 197.558 404.241 197.06 404.477 196.511C404.713 195.962 404.839 195.371 404.846 194.774C404.854 194.176 404.744 193.582 404.523 193.027C404.301 192.472 403.973 191.966 403.555 191.537C403.138 191.109 402.641 190.767 402.091 190.531Z" fill="#006B44"/>
<path d="M263.781 258.069L154.636 282.625C151.712 283.286 149.17 285.08 147.567 287.614C145.964 290.148 145.431 293.214 146.086 296.14L176.014 429.167L304.252 400.316C305.306 400.083 306.27 399.551 307.03 398.784L277.296 266.62C276.634 263.696 274.84 261.153 272.306 259.55C269.772 257.947 266.706 257.415 263.781 258.069Z" fill="#E6E6E6"/>
<path d="M224.134 276.387L164.32 289.844C161.657 290.446 159.342 292.079 157.881 294.386C156.421 296.693 155.936 299.484 156.531 302.149L184.669 427.22L298.563 401.597L278.071 310.512C275.432 298.842 268.27 288.695 258.159 282.297C248.047 275.9 235.811 273.774 224.134 276.387Z" fill="white"/>
<path d="M276.661 394.854L201.574 411.747C201.252 411.819 200.947 411.954 200.678 412.143C200.408 412.333 200.178 412.574 200.001 412.852C199.825 413.131 199.705 413.442 199.648 413.767C199.592 414.091 199.6 414.424 199.673 414.746C199.745 415.068 199.88 415.372 200.07 415.642C200.26 415.911 200.502 416.141 200.781 416.317C201.06 416.493 201.37 416.612 201.695 416.668C202.021 416.724 202.353 416.715 202.675 416.642L277.762 399.749C278.084 399.677 278.389 399.543 278.659 399.353C278.929 399.164 279.159 398.923 279.336 398.644C279.513 398.365 279.633 398.055 279.69 397.73C279.746 397.404 279.738 397.071 279.665 396.749C279.593 396.427 279.458 396.123 279.267 395.853C279.077 395.584 278.836 395.354 278.556 395.178C278.277 395.002 277.966 394.883 277.641 394.827C277.316 394.772 276.983 394.781 276.661 394.854Z" fill="#E4E4E4"/>
<path d="M274.483 385.175L199.396 402.068C198.746 402.214 198.181 402.613 197.825 403.175C197.469 403.738 197.351 404.419 197.497 405.069C197.643 405.719 198.042 406.284 198.605 406.64C199.167 406.996 199.849 407.114 200.498 406.968L275.585 390.075C276.235 389.928 276.8 389.53 277.156 388.967C277.512 388.405 277.63 387.723 277.484 387.074C277.338 386.424 276.939 385.859 276.377 385.503C275.814 385.147 275.133 385.029 274.483 385.175Z" fill="#E4E4E4"/>
<path d="M229.769 385.071L197.22 392.394C196.899 392.466 196.595 392.601 196.325 392.791C196.056 392.981 195.827 393.222 195.651 393.5C195.475 393.778 195.355 394.089 195.299 394.413C195.243 394.738 195.251 395.07 195.323 395.392C195.396 395.713 195.531 396.017 195.72 396.286C195.91 396.556 196.151 396.785 196.429 396.961C196.708 397.137 197.018 397.257 197.343 397.313C197.667 397.369 198 397.361 198.321 397.288L230.87 389.966C231.192 389.894 231.497 389.76 231.767 389.57C232.037 389.38 232.268 389.139 232.444 388.861C232.621 388.582 232.741 388.271 232.798 387.946C232.854 387.621 232.846 387.288 232.774 386.966C232.701 386.644 232.566 386.34 232.376 386.07C232.185 385.801 231.944 385.571 231.665 385.395C231.386 385.219 231.074 385.1 230.749 385.044C230.424 384.989 230.091 384.998 229.769 385.071Z" fill="#E4E4E4"/>
<path d="M267.747 355.233L192.66 372.126C192.338 372.198 192.034 372.333 191.765 372.523C191.495 372.713 191.266 372.954 191.089 373.233C190.733 373.796 190.615 374.477 190.761 375.127C190.908 375.777 191.306 376.342 191.869 376.698C192.431 377.054 193.113 377.172 193.762 377.025L268.849 360.132C269.499 359.986 270.064 359.588 270.42 359.025C270.776 358.462 270.894 357.781 270.748 357.132C270.602 356.482 270.204 355.917 269.641 355.561C269.078 355.205 268.397 355.087 267.747 355.233Z" fill="#E4E4E4"/>
<path d="M265.57 345.559L190.483 362.452C190.161 362.524 189.857 362.658 189.587 362.848C189.317 363.037 189.087 363.278 188.91 363.557C188.734 363.835 188.614 364.146 188.557 364.471C188.501 364.796 188.509 365.129 188.582 365.451C188.654 365.772 188.789 366.077 188.979 366.346C189.17 366.616 189.411 366.845 189.69 367.021C189.969 367.197 190.28 367.317 190.605 367.372C190.93 367.428 191.263 367.419 191.584 367.346L266.671 350.453C266.993 350.381 267.297 350.247 267.567 350.057C267.836 349.867 268.066 349.626 268.242 349.348C268.419 349.069 268.538 348.759 268.595 348.434C268.651 348.109 268.643 347.777 268.57 347.455C268.498 347.133 268.363 346.829 268.173 346.56C267.983 346.29 267.742 346.061 267.463 345.885C267.185 345.709 266.874 345.59 266.549 345.534C266.224 345.478 265.892 345.486 265.57 345.559Z" fill="#E4E4E4"/>
<path d="M220.855 345.449L188.306 352.772C187.656 352.918 187.091 353.317 186.735 353.88C186.379 354.442 186.261 355.123 186.407 355.773C186.554 356.423 186.952 356.988 187.515 357.344C188.077 357.7 188.759 357.818 189.408 357.672L221.957 350.349C222.607 350.203 223.172 349.805 223.528 349.242C223.884 348.679 224.002 347.998 223.856 347.348C223.71 346.698 223.312 346.133 222.749 345.777C222.186 345.421 221.505 345.303 220.855 345.449Z" fill="#E4E4E4"/>
<path d="M258.833 315.612L183.746 332.505C183.425 332.577 183.12 332.712 182.851 332.902C182.581 333.092 182.352 333.334 182.176 333.612C181.82 334.175 181.702 334.856 181.848 335.506C181.994 336.156 182.392 336.721 182.955 337.077C183.518 337.433 184.199 337.551 184.849 337.405L259.936 320.512C260.257 320.439 260.562 320.304 260.831 320.114C261.101 319.924 261.33 319.683 261.507 319.404C261.683 319.126 261.803 318.815 261.859 318.49C261.915 318.165 261.907 317.832 261.834 317.511C261.762 317.189 261.627 316.885 261.437 316.615C261.247 316.346 261.006 316.116 260.727 315.94C260.448 315.764 260.138 315.644 259.813 315.588C259.488 315.531 259.155 315.54 258.833 315.612Z" fill="#E6E6E6"/>
<path d="M256.657 305.937L181.57 322.83C181.248 322.903 180.944 323.038 180.674 323.228C180.405 323.418 180.175 323.659 179.999 323.938C179.643 324.501 179.525 325.182 179.671 325.831C179.817 326.481 180.216 327.046 180.778 327.402C181.341 327.758 182.022 327.876 182.672 327.73L257.759 310.837C258.409 310.691 258.974 310.293 259.33 309.73C259.686 309.167 259.804 308.486 259.658 307.836C259.511 307.186 259.113 306.621 258.55 306.265C257.988 305.909 257.306 305.791 256.657 305.937Z" fill="#E6E6E6"/>
<path d="M211.941 305.828L179.392 313.151C178.742 313.297 178.177 313.696 177.821 314.258C177.465 314.821 177.347 315.502 177.493 316.152C177.64 316.802 178.038 317.367 178.601 317.723C179.163 318.079 179.845 318.197 180.494 318.051L213.043 310.728C213.365 310.656 213.669 310.52 213.939 310.33C214.208 310.14 214.438 309.899 214.614 309.621C214.79 309.342 214.91 309.031 214.966 308.706C215.023 308.381 215.014 308.049 214.942 307.727C214.87 307.405 214.735 307.101 214.545 306.831C214.355 306.562 214.113 306.332 213.835 306.156C213.556 305.98 213.245 305.86 212.92 305.804C212.596 305.748 212.263 305.756 211.941 305.828Z" fill="#E6E6E6"/>
<path d="M111.468 321.061C111.116 321.061 110.767 321.131 110.441 321.265C110.115 321.4 109.82 321.598 109.57 321.847C109.321 322.096 109.124 322.392 108.989 322.717C108.854 323.043 108.784 323.392 108.784 323.744C108.784 323.845 108.867 530.505 108.867 530.505C108.94 531.16 109.253 531.766 109.745 532.206C110.237 532.645 110.874 532.888 111.534 532.888H485.266C485.926 532.888 486.563 532.646 487.055 532.206C487.547 531.766 487.859 531.161 487.933 530.505L511.195 324.045C511.238 323.67 511.2 323.29 511.086 322.93C510.971 322.57 510.782 322.238 510.53 321.957C510.28 321.673 509.972 321.447 509.627 321.293C509.282 321.138 508.908 321.059 508.53 321.061L111.468 321.061Z" fill="#3F3D56"/>
<path d="M137.841 332.502C134.05 332.513 130.415 334.016 127.722 336.685C125.029 339.355 123.495 342.976 123.451 346.768L123.917 506.93C123.901 508.831 124.261 510.715 124.976 512.476C125.692 514.237 126.75 515.838 128.088 517.188C129.426 518.537 131.018 519.609 132.772 520.34C134.526 521.071 136.408 521.447 138.308 521.447H375.551C402.761 521.465 429.022 511.45 449.311 493.319C469.599 475.188 482.491 450.213 485.519 423.173L493.933 348.505C494.16 346.492 493.959 344.453 493.344 342.523C492.729 340.593 491.713 338.814 490.363 337.304C489.013 335.793 487.359 334.585 485.51 333.757C483.661 332.93 481.658 332.502 479.632 332.502H137.841ZM501.402 332.502L501.36 331.574H501.402V332.502Z" fill="#E5F4DF"/>
<path d="M241.472 452.496H149.567C148.617 452.496 147.707 452.119 147.035 451.447C146.364 450.776 145.986 449.865 145.986 448.915C145.986 447.965 146.364 447.055 147.035 446.383C147.707 445.712 148.617 445.334 149.567 445.334H241.472C246.09 445.27 246.136 452.561 241.472 452.496Z" fill="#006B44"/>
<path d="M365.278 471.226H149.567C148.617 471.226 147.707 470.849 147.035 470.178C146.364 469.506 145.986 468.595 145.986 467.646C145.986 466.696 146.364 465.785 147.035 465.114C147.707 464.442 148.617 464.065 149.567 464.065H365.278C369.896 464 369.942 471.291 365.278 471.226Z" fill="#006B44"/>
</svg>
