<svg width="752" height="724" viewBox="0 0 752 724" fill="none" xmlns="http://www.w3.org/2000/svg">
<path d="M729.57 351.131C792.84 170.771 622.94 -23.0287 419.73 2.2313C358.47 9.8413 301.19 37.7113 265.91 103.581C157.35 306.261 10.2801 252.391 0.790101 367.361C-8.6999 482.331 107.19 601.071 341.06 422.851C458.37 333.461 637.09 566.041 707.41 406.781C715.94 387.451 723.32 368.921 729.57 351.131Z" fill="#E5F4DF"/>
<path d="M280.42 401.161C280.42 401.161 287.95 266.151 89.2998 250.711C89.2998 250.711 116.55 440.181 280.42 401.161Z" fill="#006B44"/>
<path d="M331.26 423.491C331.26 423.491 405.15 239.051 157.02 127.161C157.02 127.161 101.96 403.211 331.26 423.491Z" fill="#77B585"/>
<path d="M303.33 379.401L269.4 318.781C269.74 318.621 270.04 318.351 270.21 318.001C270.24 317.931 270.27 317.871 270.29 317.791L291.46 253.071C291.72 252.291 291.3 251.531 290.52 251.371C289.75 251.211 288.91 251.701 288.66 252.491L267.87 316.051L241.05 268.131L261.37 206.011C261.62 205.231 261.21 204.471 260.43 204.311C259.66 204.151 258.82 204.641 258.57 205.431L239.16 264.771L214.68 221.041C214.68 221.041 214.72 220.991 214.73 220.961C214.73 220.961 214.73 220.961 214.73 220.951C214.77 220.871 214.8 220.791 214.83 220.701C214.83 220.681 214.83 220.661 214.83 220.641C214.83 220.611 214.85 220.581 214.86 220.551L223.48 174.371C223.63 173.581 223.1 172.891 222.3 172.831C221.5 172.781 220.73 173.381 220.58 174.171L212.54 217.251L185.33 168.641C184.96 167.981 184.07 167.801 183.35 168.241C182.63 168.681 182.34 169.571 182.71 170.241L209.6 218.291L163.85 210.251C163.07 210.111 162.25 210.641 162.02 211.421C161.79 212.201 162.24 212.951 163.02 213.091L211.46 221.601L237.84 268.741L237.8 268.851L172.48 260.551C171.69 260.451 170.89 261.011 170.7 261.801C170.51 262.591 170.99 263.311 171.78 263.411L238.43 271.881C238.51 271.891 238.59 271.881 238.67 271.871C238.74 271.871 238.82 271.871 238.89 271.871C238.99 271.851 239.09 271.811 239.18 271.771C239.24 271.741 239.31 271.731 239.37 271.701C239.4 271.681 239.43 271.661 239.46 271.641L267.81 322.291C267.67 322.221 267.52 322.151 267.35 322.131L200.7 313.661C199.91 313.561 199.11 314.111 198.92 314.911C198.73 315.701 199.21 316.421 200 316.521L266.65 324.991C267.33 325.081 268.02 324.681 268.32 324.061C268.37 323.961 268.41 323.851 268.43 323.741C268.46 323.631 268.44 323.531 268.44 323.431L300.68 381.031C301.05 381.691 301.94 381.871 302.66 381.431C302.95 381.251 303.17 381.011 303.3 380.731C303.5 380.311 303.52 379.831 303.3 379.431L303.33 379.401Z" fill="#006B44"/>
<path d="M490.5 642.611L536.71 636.021L681.13 519.431C686.67 514.961 684.92 506.111 678.09 504.091L610.56 484.101L490.49 642.621L490.5 642.611Z" fill="#DAE0D1"/>
<path d="M667.55 278.261C667.53 277.371 667.32 276.481 666.98 275.651C666.98 275.651 666.98 275.641 666.98 275.631C666.02 273.381 664.12 271.591 661.91 270.581C661.44 270.371 660.95 270.181 660.45 270.051C660.27 270.001 660.09 269.951 659.91 269.911C659.88 269.911 651.92 268.201 651.89 268.191L643.25 275.241C644.54 275.541 652.33 276.571 653.44 277.311C656.74 278.811 659.46 282.181 659.04 285.961L657.59 310.711C657.09 310.601 651.74 318.341 651.91 318.431C651.93 318.441 646.65 503.011 646.65 503.011C646.6 503.851 643.58 509.901 644.36 509.281L652.4 500.711C654.1 498.901 655.11 496.731 655.23 494.591L667.43 280.851C667.49 279.711 667.57 278.771 667.56 278.281C667.56 278.271 667.56 278.251 667.56 278.241L667.55 278.261Z" fill="#214033"/>
<path d="M656.79 269.211L328.49 198.921H328.47L327.98 198.821C326.81 198.561 326.13 198.441 325.01 198.491C324.62 198.511 324.24 198.561 323.85 198.631C322.8 198.841 321.79 199.271 320.96 199.931L315.75 204.071C315.75 204.071 318 205.081 320.71 205.811L649.52 276.211L656.8 269.221L656.79 269.211Z" fill="#2D5745"/>
<path d="M653.53 273.511L322.3 202.591C317.8 201.631 313.98 204.041 313.75 207.981L303.26 386.731C303.25 386.931 303.26 387.131 303.26 387.321L300.76 427.901C300.53 431.841 304.5 435.701 309 436.671L640.23 507.591C644.73 508.551 648.56 506.141 648.78 502.201L660.1 302.731C660.11 302.491 660.11 302.261 660.1 302.021L661.25 282.391C661.48 278.451 658.03 274.481 653.53 273.511Z" fill="#121212"/>
<path d="M645.03 509.441L633.49 518.331L630.34 513.741L304.43 438.431C300.5 437.521 293.06 439.641 288.91 442.881L159.74 543.351L159.57 541.501L139.81 555.221L136.83 554.951L137.95 562.961C138.43 564.651 139.84 562.611 141.17 562.911L479.81 644.271C483.74 645.181 490.36 643.481 494.51 640.241L639.77 526.861C642.03 525.091 643.71 522.021 643.59 520.591L645.01 509.421L645.03 509.441Z" fill="#9BA68F"/>
<path d="M304.43 438.431C300.5 437.521 293.06 439.641 288.91 442.881L159.74 543.351L159.57 541.501L139.81 555.221L136.69 552.461L137.25 562.271C137.27 563.891 138.58 564.491 139.91 564.791L479.82 644.271C481.43 644.641 483.51 644.581 485.67 644.141L476.57 562.431C478.83 560.661 304.42 438.431 304.42 438.431H304.43Z" fill="#AEBAA0"/>
<path d="M478.68 633.541L139.53 555.171C135.6 554.261 135.78 550.871 139.93 547.631L291.31 431.631C295.46 428.391 302.63 427.131 306.56 428.041L642.38 505.641C646.31 506.551 646.13 509.941 641.98 513.181L493.35 629.301C489.2 632.541 482.6 634.451 478.68 633.541Z" fill="#ECF2E2"/>
<path d="M327.36 460.291C326.89 460.641 325.91 460.791 325.19 460.631L305.02 456.091C304.29 455.931 304.09 455.511 304.56 455.161L317.64 445.461C318.11 445.111 319.09 444.961 319.82 445.121L339.99 449.661C340.72 449.821 340.93 450.241 340.45 450.591L327.37 460.291H327.36Z" fill="#DAE3CD"/>
<path d="M351.15 483.071C350.67 483.421 349.71 483.581 348.97 483.411L328.8 478.871C328.07 478.711 327.87 478.291 328.35 477.941L341.43 468.231C341.89 467.891 342.87 467.731 343.59 467.891L363.76 472.431C364.5 472.601 364.7 473.011 364.23 473.361L351.15 483.071Z" fill="#DAE3CD"/>
<path d="M339.71 497.921C339.24 498.271 338.27 498.421 337.54 498.261L317.37 493.721C316.65 493.561 316.43 493.141 316.9 492.791L329.98 483.081C330.44 482.741 331.43 482.591 332.15 482.751L352.32 487.291C353.04 487.451 353.25 487.871 352.79 488.221L339.71 497.931V497.921Z" fill="#DAE3CD"/>
<path d="M308.1 508.221C307.63 508.571 306.66 508.721 305.93 508.561L285.76 504.021C285.04 503.861 284.83 503.441 285.3 503.091L298.38 493.381C298.85 493.031 299.83 492.881 300.55 493.041L320.72 497.581C321.44 497.741 321.64 498.161 321.17 498.511L308.09 508.221H308.1Z" fill="#DAE3CD"/>
<path d="M253.04 515.441C252.57 515.791 251.59 515.941 250.87 515.781L230.7 511.241C229.97 511.081 229.76 510.661 230.24 510.311L245.6 498.911C246.06 498.571 247.05 498.411 247.77 498.571L267.94 503.111C268.67 503.271 268.87 503.701 268.4 504.041L253.04 515.441Z" fill="#DAE3CD"/>
<path d="M287.81 523.271C287.34 523.621 286.18 523.731 285.22 523.511L258.79 517.561C257.84 517.351 257.45 516.891 257.92 516.541L273.28 505.141C273.74 504.801 274.91 504.681 275.86 504.891L302.29 510.841C303.25 511.061 303.63 511.521 303.17 511.861L287.81 523.261V523.271Z" fill="#DAE3CD"/>
<path d="M461.42 562.481C461.03 562.771 460.12 562.871 459.39 562.711L439.24 558.171C438.5 558.001 438.23 557.631 438.62 557.341L444.3 553.131C444.69 552.841 445.61 552.741 446.34 552.901L466.49 557.441C467.22 557.601 467.49 557.981 467.1 558.261L461.42 562.471V562.481Z" fill="#DAE3CD"/>
<path d="M488.38 568.891C487.99 569.181 487.08 569.281 486.35 569.121L466.2 564.581C465.46 564.411 465.19 564.041 465.58 563.751L471.26 559.541C471.65 559.251 472.57 559.151 473.3 559.311L493.45 563.851C494.18 564.011 494.45 564.391 494.06 564.671L488.38 568.881V568.891Z" fill="#DAE3CD"/>
<path d="M516.94 575.011C516.56 575.291 515.66 575.381 514.93 575.221L494.77 570.681C494.05 570.521 493.75 570.151 494.13 569.871L499.6 565.811C499.97 565.531 500.89 565.441 501.61 565.601L521.77 570.141C522.5 570.301 522.78 570.671 522.41 570.951L516.94 575.011Z" fill="#DAE3CD"/>
<path d="M499.14 561.061C498.76 561.341 497.86 561.431 497.13 561.271L476.97 556.731C476.25 556.571 475.95 556.201 476.33 555.921L481.8 551.861C482.17 551.581 483.09 551.491 483.81 551.651L503.97 556.191C504.7 556.351 504.98 556.721 504.61 557.001L499.14 561.061Z" fill="#DAE3CD"/>
<path d="M426.56 554.501C426.09 554.851 425.11 555.001 424.38 554.831L293.13 525.271C292.41 525.111 292.19 524.691 292.66 524.341L308.02 512.941C308.48 512.601 309.48 512.441 310.19 512.601L441.44 542.161C442.17 542.321 442.38 542.751 441.91 543.091L426.55 554.491L426.56 554.501Z" fill="#DAE3CD"/>
<path d="M284.16 520.051C284.16 520.051 284.04 520.071 283.95 520.051L268.53 516.581C268.45 516.561 268.4 516.531 268.43 516.511L269.38 515.801C269.38 515.801 269.5 515.781 269.59 515.801L285.01 519.271C285.1 519.291 285.14 519.321 285.11 519.341L284.16 520.051Z" fill="#DAE3CD"/>
<path d="M244.6 509.741C244.6 509.741 244.52 509.771 244.48 509.761L237.93 508.291C237.93 508.291 237.89 508.261 237.92 508.241L238.87 507.531C238.87 507.531 238.95 507.501 238.99 507.511L245.54 508.981C245.54 508.981 245.58 509.011 245.55 509.031L244.6 509.741Z" fill="#DAE3CD"/>
<path d="M335.75 514.431C335.28 514.781 334.31 514.931 333.58 514.771L313.41 510.231C312.69 510.071 312.48 509.651 312.94 509.301L326.02 499.591C326.49 499.241 327.48 499.091 328.2 499.251L348.37 503.791C349.1 503.951 349.3 504.381 348.83 504.721L335.75 514.431Z" fill="#DAE3CD"/>
<path d="M363.52 520.691C363.05 521.041 362.07 521.191 361.35 521.031L341.18 516.491C340.46 516.331 340.24 515.911 340.71 515.561L353.79 505.851C354.26 505.501 355.25 505.351 355.97 505.511L376.14 510.051C376.86 510.211 377.06 510.631 376.59 510.981L363.51 520.691H363.52Z" fill="#DAE3CD"/>
<path d="M391.29 526.941C390.82 527.291 389.84 527.441 389.12 527.281L368.95 522.741C368.23 522.581 368.02 522.161 368.49 521.811L381.57 512.101C382.04 511.751 383.02 511.601 383.74 511.761L403.91 516.301C404.63 516.461 404.83 516.881 404.36 517.231L391.28 526.941H391.29Z" fill="#DAE3CD"/>
<path d="M419.07 533.201C418.6 533.551 417.63 533.701 416.9 533.541L396.73 529.001C396 528.841 395.8 528.421 396.26 528.071L409.34 518.361C409.81 518.011 410.79 517.861 411.52 518.021L431.69 522.561C432.41 522.721 432.61 523.141 432.15 523.491L419.07 533.201Z" fill="#DAE3CD"/>
<path d="M446.84 539.451C446.37 539.801 445.39 539.951 444.66 539.781L424.5 535.241C423.78 535.081 423.57 534.661 424.04 534.311L437.12 524.601C437.59 524.251 438.57 524.101 439.29 524.261L459.45 528.801C460.18 528.961 460.39 529.391 459.92 529.741L446.84 539.451Z" fill="#DAE3CD"/>
<path d="M474.62 545.701C474.15 546.051 473.17 546.201 472.45 546.041L452.29 541.501C451.56 541.341 451.36 540.921 451.82 540.571L464.9 530.861C465.37 530.511 466.35 530.361 467.08 530.521L487.24 535.061C487.96 535.221 488.17 535.651 487.7 535.991L474.62 545.701Z" fill="#DAE3CD"/>
<path d="M537.17 559.782C536.7 560.132 535.72 560.281 535 560.121L480.05 547.751C479.32 547.591 479.12 547.171 479.59 546.821L492.67 537.111C493.14 536.761 494.12 536.611 494.85 536.771L549.8 549.141C550.53 549.301 550.73 549.731 550.26 550.071L537.18 559.782H537.17Z" fill="#DAE3CD"/>
<path d="M367.35 504.131C366.88 504.481 365.92 504.631 365.19 504.471L345.02 499.931C344.3 499.771 344.08 499.351 344.56 499.001L357.64 489.291C358.1 488.951 359.08 488.791 359.8 488.961L379.97 493.501C380.7 493.661 380.89 494.081 380.43 494.421L367.35 504.131Z" fill="#DAE3CD"/>
<path d="M395.13 510.381C394.66 510.731 393.68 510.881 392.96 510.721L372.78 506.181C372.06 506.021 371.85 505.611 372.32 505.251L385.4 495.541C385.86 495.201 386.84 495.041 387.56 495.201L407.74 499.741C408.46 499.901 408.67 500.321 408.2 500.671L395.12 510.381H395.13Z" fill="#DAE3CD"/>
<path d="M422.9 516.641C422.43 516.991 421.45 517.141 420.73 516.981L400.56 512.441C399.85 512.281 399.62 511.861 400.09 511.511L413.17 501.801C413.63 501.461 414.63 501.311 415.34 501.471L435.51 506.011C436.23 506.171 436.44 506.591 435.98 506.941L422.9 516.651V516.641Z" fill="#DAE3CD"/>
<path d="M450.67 522.891C450.2 523.241 449.23 523.391 448.5 523.231L428.34 518.691C427.61 518.531 427.4 518.111 427.87 517.761L440.95 508.051C441.41 507.711 442.39 507.551 443.12 507.721L463.28 512.261C464 512.421 464.21 512.841 463.75 513.191L450.67 522.901V522.891Z" fill="#DAE3CD"/>
<path d="M478.45 529.141C477.98 529.491 477 529.641 476.28 529.481L456.1 524.941C455.37 524.781 455.17 524.361 455.64 524.011L468.72 514.301C469.18 513.961 470.15 513.801 470.88 513.971L491.06 518.511C491.78 518.671 491.99 519.091 491.53 519.441L478.45 529.151V529.141Z" fill="#DAE3CD"/>
<path d="M506.22 535.391C505.75 535.741 504.78 535.891 504.06 535.731L483.9 531.191C483.17 531.021 482.95 530.611 483.43 530.261L496.51 520.551C496.97 520.211 497.95 520.051 498.68 520.221L518.84 524.761C519.56 524.921 519.77 525.341 519.3 525.691L506.22 535.401V535.391Z" fill="#DAE3CD"/>
<path d="M533.99 541.641C533.52 541.991 532.55 542.141 531.83 541.981L511.65 537.441C510.93 537.281 510.72 536.871 511.2 536.511L524.28 526.801C524.74 526.461 525.71 526.301 526.43 526.461L546.61 531.001C547.33 531.161 547.54 531.581 547.07 531.931L533.99 541.641Z" fill="#DAE3CD"/>
<path d="M378.79 489.281C378.31 489.631 377.34 489.791 376.61 489.621L356.44 485.081C355.72 484.921 355.52 484.501 355.99 484.151L369.07 474.441C369.53 474.101 370.51 473.941 371.23 474.101L391.4 478.641C392.13 478.801 392.33 479.221 391.87 479.571L378.79 489.281Z" fill="#DAE3CD"/>
<path d="M406.56 495.531C406.08 495.881 405.11 496.041 404.39 495.871L384.22 491.331C383.5 491.171 383.29 490.751 383.76 490.391L396.84 480.681C397.3 480.341 398.28 480.181 399.01 480.351L419.18 484.891C419.9 485.051 420.1 485.471 419.64 485.821L406.56 495.531Z" fill="#DAE3CD"/>
<path d="M434.34 501.791C433.86 502.141 432.89 502.301 432.16 502.131L411.99 497.591C411.27 497.431 411.06 497.011 411.54 496.661L424.62 486.951C425.08 486.611 426.06 486.451 426.78 486.611L446.95 491.151C447.68 491.311 447.89 491.731 447.42 492.081L434.34 501.791Z" fill="#DAE3CD"/>
<path d="M462.1 508.041C461.62 508.391 460.66 508.551 459.93 508.381L439.76 503.841C439.03 503.681 438.83 503.261 439.3 502.901L452.38 493.191C452.84 492.851 453.82 492.691 454.55 492.861L474.72 497.401C475.45 497.561 475.64 497.981 475.18 498.331L462.1 508.041Z" fill="#DAE3CD"/>
<path d="M489.88 514.291C489.4 514.641 488.43 514.801 487.71 514.631L467.54 510.091C466.81 509.931 466.61 509.511 467.09 509.161L480.17 499.451C480.63 499.111 481.61 498.951 482.33 499.121L502.5 503.661C503.21 503.821 503.42 504.241 502.96 504.581L489.88 514.291Z" fill="#DAE3CD"/>
<path d="M517.66 520.541C517.18 520.891 516.21 521.051 515.48 520.881L495.31 516.341C494.6 516.181 494.38 515.761 494.86 515.411L507.94 505.701C508.4 505.361 509.39 505.201 510.1 505.361L530.27 509.901C531 510.061 531.21 510.481 530.74 510.831L517.66 520.541Z" fill="#DAE3CD"/>
<path d="M545.43 526.801C544.95 527.151 543.98 527.311 543.26 527.141L523.09 522.601C522.36 522.441 522.16 522.021 522.64 521.671L535.72 511.961C536.18 511.621 537.16 511.461 537.88 511.631L558.05 516.171C558.77 516.331 558.98 516.751 558.51 517.101L545.43 526.811V526.801Z" fill="#DAE3CD"/>
<path d="M323.38 476.811C322.9 477.161 321.93 477.321 321.2 477.151L287 469.451C286.27 469.291 286.06 468.871 286.54 468.511L299.62 458.801C300.08 458.461 301.06 458.301 301.79 458.471L335.99 466.171C336.72 466.331 336.92 466.751 336.46 467.101L323.38 476.811Z" fill="#DAE3CD"/>
<path d="M591.21 519.691C590.74 520.041 589.76 520.191 589.04 520.031L554.84 512.331C554.13 512.171 553.91 511.751 554.38 511.401L567.46 501.701C567.93 501.351 568.92 501.201 569.63 501.361L603.83 509.061C604.56 509.221 604.77 509.641 604.29 509.991L591.21 519.691Z" fill="#DAE3CD"/>
<path d="M311.94 491.661C311.47 492.011 310.5 492.161 309.77 492.001L269 482.821C268.27 482.661 268.06 482.241 268.53 481.891L281.61 472.181C282.07 471.841 283.05 471.681 283.78 471.851L324.55 481.031C325.28 481.201 325.48 481.611 325.02 481.961L311.94 491.671V491.661Z" fill="#DAE3CD"/>
<path d="M280.34 501.971C279.87 502.321 278.89 502.471 278.17 502.311L250.99 496.191C250.26 496.031 250.06 495.611 250.52 495.261L263.6 485.551C264.07 485.201 265.05 485.051 265.78 485.211L292.96 491.331C293.69 491.491 293.89 491.921 293.42 492.261L280.34 501.971Z" fill="#DAE3CD"/>
<path d="M355.13 466.541C354.66 466.891 353.69 467.041 352.95 466.881L332.79 462.341C332.06 462.181 331.86 461.761 332.33 461.411L345.41 451.711C345.88 451.361 346.86 451.211 347.59 451.371L367.75 455.911C368.49 456.081 368.69 456.491 368.22 456.841L355.14 466.541H355.13Z" fill="#DAE3CD"/>
<path d="M382.78 472.761C382.31 473.111 381.33 473.261 380.6 473.101L360.43 468.561C359.71 468.401 359.5 467.981 359.97 467.631L373.05 457.931C373.52 457.581 374.5 457.431 375.22 457.591L395.39 462.131C396.12 462.291 396.33 462.711 395.85 463.061L382.77 472.761H382.78Z" fill="#DAE3CD"/>
<path d="M410.54 479.011C410.07 479.361 409.1 479.511 408.37 479.351L388.2 474.811C387.48 474.651 387.27 474.231 387.74 473.881L400.82 464.181C401.29 463.831 402.27 463.681 402.99 463.841L423.16 468.381C423.89 468.541 424.09 468.961 423.61 469.311L410.53 479.011H410.54Z" fill="#DAE3CD"/>
<path d="M438.32 485.271C437.85 485.621 436.87 485.771 436.14 485.611L415.98 481.071C415.25 480.911 415.04 480.491 415.52 480.141L428.6 470.441C429.07 470.091 430.05 469.941 430.78 470.101L450.94 474.641C451.66 474.801 451.88 475.221 451.4 475.571L438.32 485.271Z" fill="#DAE3CD"/>
<path d="M466.08 491.521C465.61 491.871 464.65 492.031 463.91 491.861L443.75 487.321C443.02 487.161 442.81 486.741 443.29 486.391L456.37 476.691C456.84 476.341 457.82 476.191 458.55 476.351L478.71 480.891C479.44 481.051 479.64 481.471 479.16 481.821L466.08 491.521Z" fill="#DAE3CD"/>
<path d="M493.87 497.761C493.4 498.111 492.42 498.261 491.7 498.101L471.52 493.561C470.8 493.401 470.6 492.981 471.07 492.631L484.15 482.931C484.62 482.581 485.6 482.431 486.32 482.591L506.5 487.131C507.22 487.291 507.43 487.711 506.95 488.061L493.87 497.761Z" fill="#DAE3CD"/>
<path d="M521.64 504.021C521.17 504.371 520.19 504.521 519.47 504.361L499.3 499.821C498.57 499.661 498.36 499.241 498.83 498.891L511.91 489.191C512.38 488.841 513.36 488.691 514.09 488.851L534.26 493.391C534.99 493.551 535.2 493.971 534.72 494.321L521.64 504.021Z" fill="#DAE3CD"/>
<path d="M549.4 510.271C548.93 510.621 547.96 510.771 547.24 510.611L527.06 506.061C526.34 505.901 526.14 505.481 526.61 505.131L539.69 495.431C540.16 495.081 541.14 494.931 541.85 495.091L562.03 499.641C562.75 499.801 562.95 500.221 562.48 500.571L549.4 510.271Z" fill="#DAE3CD"/>
<path d="M565.64 517.871C565.31 517.791 564.9 517.781 564.46 517.851C564.04 517.911 563.7 518.051 563.48 518.211L550.4 527.921C550.18 528.081 550.08 528.271 550.17 528.461C550.27 528.641 550.51 528.781 550.84 528.861L556.11 530.051L538.96 542.781C538.74 542.941 538.65 543.141 538.75 543.321C538.84 543.501 539.09 543.641 539.43 543.711L553.02 546.771C553.36 546.851 553.77 546.861 554.2 546.801C554.62 546.741 554.97 546.601 555.19 546.441L586.29 523.371C586.51 523.211 586.6 523.021 586.5 522.841C586.41 522.651 586.16 522.521 585.82 522.441L565.65 517.901L565.64 517.871Z" fill="#DAE3CD"/>
<path d="M276.64 497.501C276.64 497.501 276.52 497.521 276.43 497.501L261.01 494.031C260.93 494.011 260.88 493.981 260.91 493.961L261.86 493.251C261.86 493.251 261.98 493.231 262.07 493.251L277.49 496.721C277.58 496.741 277.62 496.771 277.59 496.791L276.64 497.501Z" fill="#DAE3CD"/>
<path d="M359.15 586.041L285.23 569.841C284.37 569.651 284.38 568.981 285.23 568.351L315.96 545.731C316.82 545.101 318.22 544.741 319.07 544.921L392.99 561.121C393.85 561.311 393.84 561.981 392.99 562.611L362.26 585.231C361.4 585.861 360 586.221 359.15 586.041Z" fill="#DAE3CD"/>
<path d="M644.43 289.301L330.56 221.391C326.3 220.471 322.66 222.411 322.41 225.721L320.87 246.821C320.8 247.071 320.75 247.341 320.73 247.611L311.32 398.871C311.08 402.191 316.1 408.391 320.36 409.321L631.01 480.051C635.27 480.971 638.92 479.031 639.16 475.721L640.6 448.131C640.66 447.881 640.72 447.611 640.74 447.341L651.7 296.971C651.94 293.651 648.69 290.221 644.43 289.301Z" fill="white"/>
<path d="M527.27 609.101C526.93 609.101 526.6 608.961 526.37 608.671C525.98 608.181 526.07 607.471 526.56 607.081L540.14 596.351C540.63 595.971 541.34 596.051 541.73 596.541C542.12 597.031 542.03 597.741 541.54 598.131L527.96 608.861C527.76 609.021 527.51 609.101 527.27 609.101Z" fill="#372D4F"/>
<path d="M510.31 622.751C509.97 622.751 509.64 622.611 509.41 622.321C509.02 621.831 509.11 621.121 509.6 620.731L523.18 610.001C523.67 609.621 524.38 609.701 524.77 610.191C525.16 610.681 525.07 611.391 524.58 611.781L511 622.511C510.8 622.671 510.55 622.751 510.31 622.751Z" fill="#372D4F"/>
<path opacity="0.5" d="M397.627 591.458C473.784 590.328 535.149 564.307 534.69 533.338C534.23 502.369 472.12 478.18 395.963 479.31C319.806 480.44 258.441 506.461 258.9 537.43C259.36 568.398 321.47 592.587 397.627 591.458Z" fill="#ACBD90"/>
<path d="M470.844 531.811C530.75 471.905 530.75 374.777 470.844 314.871C410.937 254.964 313.81 254.964 253.903 314.871C193.997 374.777 193.997 471.905 253.903 531.811C313.81 591.717 410.937 591.717 470.844 531.811Z" fill="#4F5D90"/>
<path d="M505.75 368.771C499.44 366.031 434.5 338.791 413.45 371.261C391.36 405.331 361.66 391.011 362.37 432.321C363.08 473.621 387.11 503.721 425.69 508.401C470.03 513.781 371.55 556.171 402.12 571.521C483.78 550.831 538.55 460.301 505.74 368.771H505.75Z" fill="#77B585"/>
<path d="M313.66 277.851C313.66 277.851 379.44 290.841 376.02 315.141C372.59 339.441 357.22 331.241 332.2 339.301C307.18 347.351 300.46 334.081 282.93 351.631C265.4 369.181 228.48 348.381 228.48 348.381C228.48 348.381 250.19 299.141 313.67 277.841L313.66 277.851Z" fill="#77B585"/>
<path d="M209.85 413.021C209.85 413.021 260.16 415.141 268.87 453.211C277.58 491.281 294.8 481.151 302.12 498.961C304.18 503.971 302.45 509.421 298.91 514.671C285.28 534.851 255.98 536.242 240.02 517.842C223.91 499.272 207.49 466.911 209.84 413.021H209.85Z" fill="#77B585"/>
<g style="mix-blend-mode:multiply" opacity="0.68">
<path d="M471.3 531.341C411.65 591.501 314.52 591.911 254.36 532.261C413.78 562.791 496.58 429.901 470.38 314.401C530.54 374.051 530.95 471.181 471.3 531.341Z" fill="#A1BF82"/>
</g>
<path d="M358.49 439.531L377.01 431.421L387.01 458.651C389.26 465.111 388.5 471.901 384.99 476.721L375.82 489.311L358.48 439.521L358.49 439.531Z" fill="white"/>
<path d="M331.71 470.011L330.9 491.321L358.22 497.451C364.39 498.831 370.12 497.021 373.48 492.611L381.7 481.231L331.7 470.011H331.71Z" fill="white"/>
<path d="M320.93 478.451L340.72 463.111L337.97 502.331L320.93 478.451Z" fill="white"/>
<path d="M385.66 475.811C385.66 475.811 379.79 481.951 354.68 476.541L353.35 489.091L381.52 481.501L385.66 475.811Z" fill="white"/>
<path d="M312.05 466.561L313.2 489.401L287.28 483.671C281.17 482.191 275.7 477.571 272.72 471.361L264.95 455.161L312.05 466.571V466.561Z" fill="white"/>
<path d="M294.63 422.821L276.98 409.851L263.48 433.201C260.43 438.471 260.21 445.141 262.88 450.971L269.92 465.551L294.62 422.811L294.63 422.821Z" fill="white"/>
<path d="M290.84 407.401L297.68 435.621L265.58 410.511L290.84 407.401Z" fill="white"/>
<path d="M273.28 472.541C273.28 472.541 269.92 463.261 282.13 441.671L272 433.201L269.77 465.231L273.28 472.551V472.541Z" fill="white"/>
<path d="M306.39 408.871L287.7 395.221L302.44 374.671C306.02 369.911 311.86 367.781 317.99 369.001L333.98 372.181L306.4 408.871H306.39Z" fill="white"/>
<path d="M348.17 420.801L365.45 412.661L352.08 384.981C349.06 378.731 343.82 374.221 338.12 372.961L323.71 370.141L348.17 420.801Z" fill="white"/>
<path d="M361.97 427.201L336.75 415.391L369.39 401.571L361.97 427.201Z" fill="white"/>
<path d="M316.82 368.771C316.82 368.771 325.55 371.611 338.02 396.961L348.76 392.951L324.05 370.211L316.82 368.771Z" fill="white"/>
<path d="M467.22 142.371C471.644 142.371 475.23 138.785 475.23 134.361C475.23 129.938 471.644 126.351 467.22 126.351C462.796 126.351 459.21 129.938 459.21 134.361C459.21 138.785 462.796 142.371 467.22 142.371Z" fill="#3AAC5D"/>
<path d="M749.75 412.621C750.457 408.254 747.489 404.141 743.122 403.434C738.755 402.728 734.643 405.695 733.936 410.062C733.229 414.429 736.197 418.542 740.564 419.249C744.931 419.955 749.044 416.988 749.75 412.621Z" fill="#089B65"/>
<path d="M36.86 464.136C37.5627 459.768 34.5916 455.658 30.224 454.955C25.8564 454.253 21.7461 457.224 21.0434 461.591C20.3407 465.959 23.3116 470.069 27.6793 470.772C32.0469 471.475 36.1572 468.504 36.86 464.136Z" fill="#B9DE50"/>
<path d="M361.5 723.541C391.384 723.541 415.61 711.184 415.61 695.941C415.61 680.698 391.384 668.341 361.5 668.341C331.616 668.341 307.39 680.698 307.39 695.941C307.39 711.184 331.616 723.541 361.5 723.541Z" fill="#DAE0D1"/>
<path d="M404.19 689.061C434.074 689.061 458.3 676.704 458.3 661.461C458.3 646.218 434.074 633.861 404.19 633.861C374.306 633.861 350.08 646.218 350.08 661.461C350.08 676.704 374.306 689.061 404.19 689.061Z" fill="#DAE0D1"/>
<path d="M370.26 566.831C368.14 569.201 361.39 593.301 361.39 593.301L368.77 601.611C368.77 601.611 375 596.251 374.67 595.841C374.34 595.431 392.44 567.961 392.44 567.961L370.26 566.821V566.831Z" fill="#8A4C25"/>
<path d="M438.41 605.731C438.41 605.731 446.81 642.341 428.87 656.281C414.91 667.131 388.13 650.621 388.13 650.621L386.67 630.211L390.17 604.821L438.4 605.721L438.41 605.731Z" fill="#4D2C1B"/>
<path d="M398.13 540.921C399.35 540.651 405.87 539.281 407.12 539.371C412.85 539.811 415.12 539.451 415.7 539.861L426.77 545.041C439.62 549.401 447.3 558.651 441.47 569.471C441.47 569.471 428.47 588.071 427.74 596.111C427.11 603.061 432.69 614.211 433.74 616.511C435.1 619.501 424.66 637.021 397.99 632.311C376.99 628.601 379.92 620.031 381.07 608.531C381.79 601.301 387.4 582.231 387.64 576.471C387.88 570.721 383.75 566.141 387.38 557.101C389.62 551.521 386.05 550.231 387.14 547.621C387.8 546.031 391.84 542.471 393.52 542.101L398.11 540.911L398.13 540.921Z" fill="#77B585"/>
<path d="M440.28 612.221C439.94 607.561 439.61 589.461 440.24 582.511C440.65 577.961 430.89 583.671 433.05 577.461C425.76 590.021 425.38 594.571 417.34 595.671C429.1 615.841 419.47 623.591 419.74 630.851C436.59 629.001 440.49 615.121 440.27 612.221H440.28Z" fill="#569162"/>
<path d="M443.61 565.361C443.61 565.361 443.33 606.021 432.32 616.091C421.32 626.161 391.4 597.401 391.4 597.401L393.11 592.971L421.51 600.111L429.13 565.071L443.59 565.361H443.61Z" fill="#8A4C25"/>
<path d="M442.33 557.082C442.33 557.082 447.94 572.502 450.23 582.282C452.52 592.052 429.18 601.082 423.81 585.282C418.44 569.482 426.29 559.762 426.29 559.762L442.33 557.092V557.082Z" fill="#77B585"/>
<path d="M361.4 593.371L374.41 587.531L379.95 592.501L375.31 601.141C374.42 603.791 369.63 605.871 365.97 604.351C362.04 602.721 360.35 595.231 361.4 593.361V593.371Z" fill="#8A4C25"/>
<path d="M384.36 589.461C384.84 591.881 383.76 594.121 381.95 594.421L374.87 593.761C373.06 594.071 374.29 593.671 373.81 591.241C373.33 588.821 371.54 588.811 374.84 587.401L379.98 586.661C380.65 586.561 381.34 586.561 382.01 586.701C383.27 586.971 383.98 587.541 384.36 589.451V589.461Z" fill="#8A4C25"/>
<path d="M399.83 564.591C399.83 564.591 397.31 574.021 387.05 582.571C382.1 584.511 365.55 570.031 366.4 569.241C380.05 550.801 382.98 544.981 392.87 542.391L399.82 564.601L399.83 564.591Z" fill="#77B585"/>
<path d="M335.02 700.712L344.97 689.731C346.61 688.711 348.71 688.041 351.3 688.101C352.46 688.131 352.48 687.281 352.62 688.301L354.63 692.262C356.29 694.832 354.39 697.141 351.3 698.991L340.76 705.092C338.6 706.442 335.21 706.892 333.23 706.092L332.67 705.861C330.69 705.061 332.84 702.692 335.03 700.712H335.02Z" fill="#4D2C1B"/>
<path d="M352.76 689.291C352.74 692.651 344.75 693.801 344.77 690.431L344.83 679.501L352.82 678.361L352.76 689.291Z" fill="#8A4C25"/>
<path d="M396.37 617.281C396.37 617.281 357.76 590.761 342.12 606.971C333.84 615.551 341.35 683.481 341.35 683.481C341.35 683.481 348.06 689.261 355.33 682.491C355.33 682.491 365.22 645.041 360.54 637.701L377.67 644.711L396.37 617.281Z" fill="#4D2C1B"/>
<path d="M396.37 617.281C396.37 617.281 394.7 621.781 387.46 618.101C379.48 614.041 370.08 615.781 365 618.851C359.01 622.471 355.58 629.151 355.74 636.151C356.09 651.481 354.27 667.991 351.9 684.791C352.96 684.371 354.11 683.641 355.34 682.491C355.34 682.491 365.23 645.041 360.55 637.701L377.68 644.711L396.38 617.281H396.37Z" fill="#301C11"/>
<path d="M355.12 706.522L365.61 696.122C367.26 695.232 369.31 694.772 371.76 695.132C372.86 695.292 372.96 694.402 372.99 695.492L374.51 699.892C375.83 702.782 373.8 704.992 370.7 706.582L360.12 711.782C357.94 712.952 354.69 713.032 352.89 711.962L352.38 711.662C350.58 710.592 352.85 708.342 355.11 706.522H355.12Z" fill="#4D2C1B"/>
<path d="M373.01 696.512C372.55 699.872 364.72 699.902 365.17 696.542L366.66 685.612L374.5 685.582L373.01 696.512Z" fill="#8A4C25"/>
<path d="M431.31 628.781C431.31 628.781 385.74 601.911 370.09 618.121C361.81 626.701 361.64 689.431 361.64 689.431C361.64 689.431 368.78 697.381 376.05 690.611C376.05 690.611 393.2 656.191 388.52 648.851L405.65 655.861L431.32 628.781H431.31Z" fill="#4D2C1B"/>
<path d="M376.19 586.631L365.53 596.001" stroke="#7A4321" stroke-width="1.3" stroke-linecap="round" stroke-linejoin="round"/>
<path d="M386.95 600.571L381.14 599.131C379.16 598.641 377.31 596.651 377.02 594.701L374.55 577.941C374.26 576.001 375.65 574.811 377.63 575.301L383.44 576.741C385.42 577.231 387.27 579.221 387.56 581.171L390.03 597.931C390.32 599.871 388.93 601.061 386.95 600.571Z" fill="#301C11"/>
<path d="M385.5 593.071C385.21 594.471 386.06 595.921 387.4 596.291L392.04 597.561C393.37 597.921 394.7 597.071 394.99 595.671C395.28 594.271 394.43 592.821 393.09 592.451L388.45 591.181C387.12 590.821 385.79 591.671 385.5 593.071Z" fill="#8A4C25"/>
<path d="M385.7 572.761C384.96 572.501 389.28 559.151 389.28 559.151" stroke="#4C8056" stroke-width="1.37" stroke-linecap="round" stroke-linejoin="round"/>
<path d="M424.72 579.241L423.25 566.501" stroke="#4C8056" stroke-width="1.37" stroke-linecap="round" stroke-linejoin="round"/>
<path d="M416.72 538.891C416.72 538.891 424.27 541.091 424.15 544.961C424.13 545.611 424.09 546.251 424.04 546.871C423.79 549.841 420.98 551.921 418.07 551.271L397.78 546.751L400.72 536.301L416.72 538.901V538.891Z" fill="#614232"/>
<path d="M422.64 546.041C422.64 546.041 422.95 552.821 412.55 557.541C407.19 559.981 404.16 564.631 402.48 568.571C401.5 570.871 400.24 569.571 400.24 567.051C400.24 560.501 400.22 558.591 399.37 553.661C397.99 545.691 402.59 534.491 403.03 534.451C403.47 534.411 422.64 546.031 422.64 546.031V546.041Z" fill="white"/>
<path d="M409.71 539.791C409.71 539.791 400.01 541.851 401.17 550.831L400.2 561.241C400.2 561.241 394.28 548.761 398.91 538.071C403.54 527.381 409.71 539.801 409.71 539.801V539.791Z" fill="#614232"/>
<path d="M410.89 551.782L410.13 551.832C407.57 551.982 405.38 550.032 405.27 547.492L404.62 533.171C404.5 530.631 406.5 528.432 409.06 528.272L409.82 528.221C412.38 528.071 414.57 530.022 414.68 532.562L417.35 546.202C417.47 548.742 413.45 551.622 410.9 551.782H410.89Z" fill="#8A4C25"/>
<path d="M419.74 540.061C419.74 540.061 424.27 548.161 411.59 553.361C411.59 553.361 406.43 557.711 405.76 562.951C405.76 562.951 410.12 560.161 412.64 558.661C415.16 557.161 434.86 548.641 419.74 540.051V540.061Z" fill="#614232"/>
<path d="M404.92 542.791C404.92 542.791 409.25 542.531 412.16 538.181C412.16 538.181 409.2 546.331 405.24 547.201L404.92 542.791Z" fill="#703E1E"/>
<path d="M412.91 521.361C411.05 518.941 408.61 518.781 406.55 520.581C404.27 519.941 401.78 521.631 400.22 525.321C398.04 530.451 397.56 538.221 400.27 541.751C401.45 543.291 403.94 543.971 405.45 543.801C406.86 543.651 410.24 542.341 411.25 540.951C414.37 536.691 414.13 540.121 415.58 536.701C417.76 531.571 415.62 524.881 412.91 521.351V521.361Z" fill="#8A4C25"/>
<path d="M409.99 523.481C412.32 527.851 414.89 535.941 415.32 537.311C415.32 537.311 422.24 531.201 421.37 527.151C418.45 513.631 411.09 521.991 411.09 521.991L409.99 523.481Z" fill="#4F3629"/>
<path d="M412.12 516.721C415.07 517.041 417.06 518.971 418.38 522.611C418.55 523.071 419.8 525.111 419.89 525.511L417.98 525.211C418.65 528.411 416.78 523.791 413.55 524.791C408.26 523.581 419.71 531.681 413.28 532.001C411.99 532.061 410.85 529.211 409.82 528.221C404.03 522.661 399.78 527.521 399.15 527.311C397.22 526.681 398.05 523.851 399.11 522.791C402.38 519.541 402.78 519.031 406.58 517.511L407.51 517.241C409.26 516.741 410.79 516.561 412.12 516.711" fill="#4F3629"/>
<path d="M403.59 540.371C402.43 540.281 401.55 539.021 401.61 537.571L405.8 537.911C405.73 539.361 404.74 540.461 403.58 540.371H403.59Z" fill="white"/>
<path d="M417.12 533.911C417.41 535.431 416.4 536.941 414.88 537.301C413.36 537.651 411.89 536.711 411.6 535.201C411.31 533.681 412.32 532.171 413.84 531.811C415.36 531.461 416.83 532.401 417.12 533.911Z" fill="#8A4C25"/>
<path d="M113.54 656.841C125.7 649.191 147.21 647.411 161.57 652.881C164.02 653.811 166.1 654.901 167.81 656.091C176.51 652.671 188.57 652.281 197.08 655.521C207.17 659.361 208.43 666.831 199.88 672.211C191.67 677.381 177.4 678.721 167.35 675.411C166.79 675.831 166.2 676.241 165.56 676.641C153.4 684.291 131.89 686.071 117.53 680.601C103.16 675.141 101.38 664.501 113.54 656.851V656.841Z" fill="#DAE0D1"/>
<path d="M200.47 659.291L189.51 647.651C187.87 646.881 184.87 646.701 182.46 647.241C181.38 647.481 180.84 648.231 180.82 649.321L180.65 651.361C180.47 654.771 180.11 655.911 182.27 656.921L195.13 662.941C197.8 664.831 205.04 663.491 200.47 659.281V659.291Z" fill="#4D2C1B"/>
<path d="M189.15 648.901C189.15 648.901 195.42 655.851 194.68 656.391C191.61 658.661 183.89 652.651 183.89 652.651C183.89 652.651 187.76 648.591 189.15 648.901Z" fill="#DE5840"/>
<path d="M181.46 651.051C183.77 654.891 189.58 652.041 189.69 647.861C188.33 624.551 192.3 605.971 191.05 584.181C189.64 559.711 187.83 559.391 185.61 521.891L163.07 526.761C168.76 553.501 172.42 587.471 172.42 587.471C167.84 613.951 175.31 619.151 181.47 651.051H181.46Z" fill="#DE5840"/>
<path d="M131.92 668.231L131.24 654.381C130.59 652.951 128.71 651.141 126.82 650.131C125.97 649.681 125.19 649.871 124.56 650.581L123.3 651.831C121.26 653.981 120.38 654.531 121.24 656.421L126.34 667.641C127.04 670.391 132.57 673.581 131.92 668.231Z" fill="#4D2C1B"/>
<path d="M130.31 655.001C130.31 655.001 130.54 663.121 129.74 663.061C126.44 662.831 124.65 655.371 124.65 655.371C124.65 655.371 129.56 654.021 130.31 655.001Z" fill="#DE5840"/>
<path d="M124.65 655.371C125.86 659.691 129.47 658.391 130.69 654.391C135.57 631.561 144.33 614.691 148.91 593.351C154.05 569.391 152.38 568.601 160.21 531.851L137.18 530.561C135.57 557.851 130.07 591.571 130.07 591.571C118.63 615.881 127.19 622.971 124.66 655.351L124.65 655.371Z" fill="#DE5840"/>
<path d="M129.09 500.361C129.09 500.361 124.54 510.931 126.92 520.911C129.3 530.891 126.43 588.051 126.43 588.051C126.43 588.051 117.34 609.641 124.02 644.271C124.02 644.271 127.81 652.391 134.36 650.181C134.36 650.181 147.69 607.541 148.73 603.841C149.77 600.141 160.49 537.031 160.49 537.031L163.66 537.461L170.2 585.751C170.2 585.751 166.36 614.651 179.65 642.501C179.65 642.501 188.29 645.121 191.8 642.691C191.8 642.691 194.1 593.551 193.95 590.851C193.8 588.161 186.52 503.401 186.52 503.401L129.08 500.351L129.09 500.361Z" fill="#6E3F27"/>
<path d="M220.47 387.241C222.39 387.951 223.49 389.781 222.92 391.311L219.35 396.461C218.77 397.991 219.03 396.861 217.11 396.151C215.19 395.441 214.4 396.811 214.85 393.641L216.58 389.361C216.81 388.801 217.1 388.271 217.5 387.821C218.24 386.971 218.96 386.681 220.47 387.241Z" fill="#DE5840"/>
<path fill-rule="evenodd" clip-rule="evenodd" d="M144.8 414.451C144.8 414.451 141.66 427.101 124.67 428.841C114.44 429.891 111.1 438.961 107.5 450.151C101.74 468.061 83.8699 460.681 82.9199 486.781C82.3299 502.781 96.6599 515.521 121.67 500.821C146.68 486.131 186.49 506.051 188.99 451.761C189.42 442.381 172.99 442.631 173.3 433.991C173.65 424.521 165.96 411.241 165.96 411.241L144.81 414.441L144.8 414.451Z" fill="#4D2C1B"/>
<path d="M176.32 457.241C167.06 461.321 165.21 452.001 165.21 452.001L166.33 432.311C171.44 428.111 188.22 428.131 200.64 425.371C203.61 423.791 205.05 421.641 206 418.521L214.32 394.461L220.09 395.551L219.53 423.551C219.83 434.201 206.77 441.251 204.7 442.621C204.7 442.621 187.34 452.381 176.32 457.241Z" fill="#A3AD99"/>
<path d="M177.12 450.451C177.12 450.451 176.54 430.231 165.48 430.801C163.94 430.881 161.32 429.511 159.54 429.641C150.31 430.311 151.62 430.331 144.98 433.071C142.48 434.101 141.05 441.451 141.52 444.171L137.62 452.471L177.12 450.451Z" fill="#DE5840"/>
<path d="M169.27 430.141C167.45 429.931 165.06 429.531 165.33 430.581C166.51 435.171 166.22 438.341 164.66 439.741C155.29 448.211 150.12 436.991 148.99 432.981C148.8 432.301 147.86 431.331 147.19 431.761L146.39 432.101C144.7 432.831 142.9 433.331 141.07 433.541C119.21 436.021 125.98 446.831 130.88 456.901C130.88 456.901 140.28 473.841 140.65 481.461C140.97 488.051 135.26 498.351 134.18 500.481C132.78 503.251 141.94 520.201 167.3 516.811C187.27 514.141 188.4 506.191 187.77 495.301C187.37 488.441 182.87 469.371 182.87 463.931C182.87 458.491 187 454.901 183.93 446.221C180.86 437.541 178.88 431.641 178.88 431.641L169.28 430.131L169.27 430.141Z" fill="#A3AD99"/>
<path d="M156.84 432.331L157.3 432.371C158.85 432.521 160.18 431.391 160.24 429.871L160.59 421.271C160.65 419.751 159.43 418.381 157.88 418.231L157.42 418.191C155.87 418.041 153.58 418.761 153.52 420.281L152.77 429.411C152.71 430.931 155.29 432.181 156.85 432.331H156.84Z" fill="#DE5840"/>
<path d="M160.47 426.161C160.47 426.161 156.79 426.461 153.97 423.101C153.97 423.101 156.92 428.301 160.34 428.561L160.47 426.161Z" fill="#DE5840"/>
<path d="M166.46 412.601C166.46 412.601 169.26 421.421 164.3 424.021C159.35 426.621 155.74 408.341 155.74 408.341L166.46 412.601Z" fill="#4D2C1B"/>
<path d="M150.49 409.561C151.52 407.101 153.5 406.381 155.56 407.381C157.3 406.301 159.69 407.101 161.74 409.781C164.59 413.511 166.07 419.901 164.57 423.491C163.91 425.061 162.6 425.581 161.32 425.811C160.13 426.031 158.88 425.981 157.67 425.721C153.32 424.801 153.34 425.431 151.44 422.941C148.59 419.211 148.99 413.151 150.49 409.561Z" fill="#DE5840"/>
<path d="M153.33 410.611C152.31 414.801 153.19 424.011 153.12 425.251C153.12 425.251 144.72 425.981 144.73 416.401C144.73 404.481 152.12 409.641 152.12 409.641L153.33 410.611Z" fill="#4D2C1B"/>
<path d="M150.67 412.561C155.01 410.141 158.61 408.211 166.37 413.321C166.78 412.251 165.01 409.051 163.41 408.141C160.06 406.231 158.35 405.191 154.91 404.841H154.09C149.12 404.881 146.75 407.071 146.25 411.911C146.21 412.341 145.59 414.331 145.6 414.681L147.11 413.971C147.22 416.791 147.81 412.501 150.67 412.561Z" fill="#4D2C1B"/>
<path d="M161.7 422.971C162.6 422.591 163.26 421.091 163.18 419.641L159.92 421.031C160 422.491 160.8 423.361 161.7 422.971Z" fill="white"/>
<path d="M115.44 522.381C113.44 522.391 111.8 521.091 111.8 519.501L113.29 513.551C113.29 511.951 113.44 513.071 115.45 513.061C117.45 513.051 117.71 511.521 118.38 514.581L118.27 519.101C118.26 519.691 118.16 520.281 117.96 520.831C117.57 521.861 117.02 522.371 115.44 522.381Z" fill="#DE5840"/>
<path d="M123.26 442.791C129.88 434.391 138.25 433.901 138.25 433.901L135.21 466.221L115.63 480.471C113.57 483.121 112.21 484.841 112.83 487.891L118.01 513.441L111.95 515.071L98.72 491.111C93.19 482.221 102.23 470.491 103.55 468.411C103.55 468.411 115.81 452.241 123.25 442.801L123.26 442.791Z" fill="#A3AD99"/>
<path d="M149.6 420.981C149.67 422.311 150.81 423.321 152.14 423.251C153.47 423.181 154.48 422.041 154.41 420.711C154.34 419.381 153.2 418.371 151.87 418.441C150.54 418.511 149.53 419.651 149.6 420.981Z" fill="#DE5840"/>
<path d="M127.97 500.261C129.05 498.131 134.56 486.791 134.24 480.201C134.03 475.891 134.91 461.311 133.12 455.371C136.57 461.921 139.15 468.611 141.98 473.591C145.51 479.791 146.47 487.081 145.19 494.101C142.99 506.151 150.13 514.721 158.94 517.431C139.78 516.671 126.72 502.701 127.96 500.251L127.97 500.261Z" fill="#93A187"/>
<path d="M170.2 585.751L163.63 536.851L169.63 538.221L174.84 587.941C174.84 587.941 178.61 630.901 183.99 643.431L179.64 642.491C179.64 642.491 165.94 619.331 170.19 585.741L170.2 585.751Z" fill="#4D2C1B"/>
<path d="M627.41 634.171C662.894 634.171 691.66 621.953 691.66 606.881C691.66 591.809 662.894 579.591 627.41 579.591C591.926 579.591 563.16 591.809 563.16 606.881C563.16 621.953 591.926 634.171 627.41 634.171Z" fill="#DAE0D1"/>
<path d="M625.18 620.931C620.89 620.931 617.38 617.421 617.38 613.131V527.561C617.38 523.271 620.89 519.761 625.18 519.761C629.47 519.761 632.98 523.271 632.98 527.561V613.131C632.98 617.421 629.47 620.931 625.18 620.931Z" fill="#121212"/>
<path d="M677.43 449.681C677.88 446.311 678.11 442.871 678.11 439.361C678.11 423.331 673.26 408.631 665.18 397.101C666.29 392.471 666.9 387.601 666.9 382.561C666.9 352.771 646.13 328.631 620.5 328.631C594.87 328.631 574.1 352.781 574.1 382.561C574.1 387.601 574.71 392.471 575.82 397.101C567.74 408.631 562.89 423.331 562.89 439.361C562.89 442.871 563.13 446.321 563.57 449.681C549.41 461.761 540.66 478.331 540.66 496.611C540.66 533.591 576.4 563.571 620.49 563.571C664.58 563.571 700.32 533.591 700.32 496.611C700.32 478.331 691.57 461.761 677.41 449.681H677.43Z" fill="#77B585"/>
<path d="M677.43 449.681C677.88 446.311 678.11 442.871 678.11 439.361C678.11 423.331 673.26 408.631 665.18 397.101C666.29 392.471 666.9 387.601 666.9 382.561C666.9 360.101 655.08 340.851 638.28 332.741C620.5 443.611 672 494.001 594.57 559.951C602.7 562.291 611.42 563.581 620.5 563.581C664.59 563.581 700.33 533.601 700.33 496.621C700.33 478.341 691.58 461.771 677.42 449.691L677.43 449.681Z" fill="#006B44"/>
</svg>
