<svg width="1920" height="175" viewBox="0 0 1920 175" fill="none" xmlns="http://www.w3.org/2000/svg">
<path d="M1920 175V113C1920 113 1678.75 101 1300.17 101C921.594 101 795.401 125 535.366 125C275.331 125 302.1 113 0 113C0.00140041 135.5 2.18813e-05 151.5 0 175H1920Z" fill="#EDF8F4"/>
<path d="M1262.67 53.8337C1277.3 53.8337 1289.17 41.9693 1289.17 27.3337C1289.17 12.6982 1277.3 0.83374 1262.67 0.83374C1248.03 0.83374 1236.17 12.6982 1236.17 27.3337C1236.17 41.9693 1248.03 53.8337 1262.67 53.8337Z" fill="#9ED3AC"/>
<path opacity="0.1" d="M1282.23 9.63379C1284.71 15.4159 1285.04 21.8886 1283.18 27.8952C1281.32 33.9017 1277.38 39.0509 1272.07 42.4224C1266.77 45.7939 1260.43 47.1681 1254.2 46.2994C1247.98 45.4308 1242.26 42.3759 1238.08 37.6806C1239.59 41.2132 1241.85 44.3753 1244.7 46.9478C1247.55 49.5203 1250.93 51.4417 1254.6 52.5789C1258.27 53.716 1262.14 54.0417 1265.95 53.5334C1269.76 53.0251 1273.41 51.695 1276.66 49.6352C1279.9 47.5754 1282.65 44.8352 1284.73 41.6044C1286.81 38.3735 1288.16 34.7294 1288.69 30.9244C1289.22 27.1194 1288.92 23.2445 1287.81 19.5683C1286.69 15.892 1284.79 12.5022 1282.23 9.63379Z" fill="black"/>
<path d="M1262.59 27.3336H1262.52L1261.21 102.466H1263.98L1262.59 27.3336Z" fill="#3F3D56"/>
<path d="M1228.58 68.6676C1238.76 68.6676 1247 60.422 1247 50.2506C1247 40.0793 1238.76 31.8337 1228.58 31.8337C1218.41 31.8337 1210.17 40.0793 1210.17 50.2506C1210.17 60.422 1218.41 68.6676 1228.58 68.6676Z" fill="#9ED3AC"/>
<path opacity="0.1" d="M1242.18 37.9496C1243.9 41.968 1244.13 46.4664 1242.84 50.6408C1241.55 54.8153 1238.81 58.3938 1235.12 60.7369C1231.43 63.08 1227.03 64.0351 1222.7 63.4314C1218.37 62.8277 1214.4 60.7046 1211.49 57.4415C1212.54 59.8966 1214.11 62.0942 1216.1 63.882C1218.08 65.6698 1220.43 67.0052 1222.98 67.7954C1225.53 68.5857 1228.22 68.8121 1230.87 68.4588C1233.51 68.1056 1236.05 67.1812 1238.31 65.7497C1240.56 64.3182 1242.47 62.4138 1243.92 60.1684C1245.36 57.9231 1246.3 55.3905 1246.67 52.7461C1247.04 50.1017 1246.83 47.4087 1246.06 44.8538C1245.28 42.2989 1243.96 39.9431 1242.18 37.9496Z" fill="black"/>
<path d="M1228.53 50.2506H1228.48L1227.57 102.466H1229.49L1228.53 50.2506Z" fill="#3F3D56"/>
<path d="M996.417 73.8338C1006.59 73.8338 1014.83 65.5883 1014.83 55.4169C1014.83 45.2455 1006.59 37 996.417 37C986.246 37 978 45.2455 978 55.4169C978 65.5883 986.246 73.8338 996.417 73.8338Z" fill="#9ED3AC"/>
<path opacity="0.1" d="M1010.02 43.1158C1011.73 47.1343 1011.97 51.6326 1010.67 55.8071C1009.38 59.9815 1006.64 63.56 1002.95 65.9032C999.266 68.2463 994.864 69.2013 990.535 68.5976C986.207 67.994 982.234 65.8709 979.327 62.6078C980.377 65.0629 981.947 67.2604 983.93 69.0483C985.913 70.8361 988.261 72.1714 990.812 72.9617C993.362 73.752 996.054 73.9784 998.7 73.6251C1001.35 73.2719 1003.88 72.3475 1006.14 70.9159C1008.39 69.4844 1010.31 67.58 1011.75 65.3347C1013.2 63.0893 1014.14 60.5567 1014.51 57.9123C1014.87 55.2679 1014.66 52.575 1013.89 50.0201C1013.11 47.4651 1011.79 45.1093 1010.02 43.1158Z" fill="black"/>
<path d="M996.366 55.4169H996.316L995.405 107.632H997.328L996.366 55.4169Z" fill="#3F3D56"/>
<path d="M1751.16 79.8338C1761.33 79.8338 1769.58 71.5883 1769.58 61.4169C1769.58 51.2455 1761.33 43 1751.16 43C1740.99 43 1732.74 51.2455 1732.74 61.4169C1732.74 71.5883 1740.99 79.8338 1751.16 79.8338Z" fill="#9ED3AC"/>
<path opacity="0.1" d="M1764.76 49.1158C1766.48 53.1343 1766.71 57.6326 1765.42 61.8071C1764.12 65.9815 1761.39 69.56 1757.7 71.9032C1754.01 74.2463 1749.61 75.2013 1745.28 74.5976C1740.95 73.994 1736.98 71.8709 1734.07 68.6078C1735.12 71.0629 1736.69 73.2604 1738.67 75.0483C1740.66 76.8361 1743 78.1714 1745.55 78.9617C1748.1 79.752 1750.8 79.9784 1753.44 79.6251C1756.09 79.2719 1758.63 78.3475 1760.88 76.9159C1763.13 75.4844 1765.05 73.58 1766.5 71.3347C1767.94 69.0893 1768.88 66.5567 1769.25 63.9123C1769.62 61.2679 1769.41 58.575 1768.63 56.0201C1767.86 53.4651 1766.53 51.1093 1764.76 49.1158Z" fill="black"/>
<path d="M1751.11 61.4169H1751.06L1750.15 113.632H1752.07L1751.11 61.4169Z" fill="#3F3D56"/>
<path d="M1724.29 85.5759C1732.73 85.5759 1739.58 78.7313 1739.58 70.288C1739.58 61.8447 1732.73 55 1724.29 55C1715.84 55 1709 61.8447 1709 70.288C1709 78.7313 1715.84 85.5759 1724.29 85.5759Z" fill="#9ED3AC"/>
<path opacity="0.1" d="M1735.58 60.0768C1737 63.4125 1737.2 67.1466 1736.12 70.6118C1735.05 74.0771 1732.78 77.0476 1729.72 78.9927C1726.65 80.9377 1723 81.7305 1719.41 81.2294C1715.81 80.7282 1712.52 78.9658 1710.1 76.2571C1710.97 78.2951 1712.28 80.1193 1713.92 81.6034C1715.57 83.0875 1717.52 84.196 1719.64 84.852C1721.75 85.508 1723.99 85.6959 1726.18 85.4027C1728.38 85.1094 1730.49 84.3421 1732.36 83.1538C1734.23 81.9655 1735.82 80.3846 1737.02 78.5207C1738.22 76.6569 1739 74.5545 1739.3 72.3594C1739.61 70.1643 1739.43 67.9289 1738.79 65.808C1738.15 63.6872 1737.05 61.7316 1735.58 60.0768Z" fill="black"/>
<path d="M1724.25 70.288H1724.2L1723.45 113.632H1725.04L1724.25 70.288Z" fill="#3F3D56"/>
<path d="M1195.92 59.8337C1208.76 59.8337 1219.17 49.4244 1219.17 36.5837C1219.17 23.7431 1208.76 13.3337 1195.92 13.3337C1183.08 13.3337 1172.67 23.7431 1172.67 36.5837C1172.67 49.4244 1183.08 59.8337 1195.92 59.8337Z" fill="#9ED3AC"/>
<path opacity="0.1" d="M1213.08 21.0546C1215.25 26.1276 1215.55 31.8064 1213.91 37.0763C1212.28 42.3463 1208.83 46.8639 1204.17 49.8219C1199.51 52.7799 1193.96 53.9856 1188.49 53.2235C1183.03 52.4614 1178.01 49.7811 1174.34 45.6617C1175.67 48.7611 1177.65 51.5354 1180.15 53.7924C1182.66 56.0494 1185.62 57.7351 1188.84 58.7328C1192.06 59.7305 1195.46 60.0162 1198.8 59.5703C1202.14 59.1243 1205.34 57.9573 1208.19 56.1502C1211.04 54.343 1213.45 51.9388 1215.28 49.1042C1217.1 46.2696 1218.29 43.0724 1218.75 39.7341C1219.22 36.3957 1218.95 32.9961 1217.97 29.7707C1216.99 26.5452 1215.33 23.5712 1213.08 21.0546Z" fill="black"/>
<path d="M1195.85 36.5836H1195.79L1194.64 102.501H1197.07L1195.85 36.5836Z" fill="#3F3D56"/>
<path d="M462 77C476.636 77 488.5 65.1356 488.5 50.5C488.5 35.8645 476.636 24 462 24C447.364 24 435.5 35.8645 435.5 50.5C435.5 65.1356 447.364 77 462 77Z" fill="#9ED3AC"/>
<path opacity="0.1" d="M481.567 32.8C484.038 38.5822 484.374 45.0548 482.513 51.0614C480.651 57.068 476.715 62.2171 471.407 65.5886C466.099 68.9601 459.765 70.3343 453.537 69.4657C447.309 68.597 441.593 65.5421 437.41 60.8469C438.92 64.3795 441.18 67.5416 444.033 70.1141C446.886 72.6866 450.265 74.608 453.935 75.7451C457.604 76.8823 461.477 77.208 465.285 76.6997C469.093 76.1914 472.745 74.8613 475.988 72.8015C479.231 70.7417 481.988 68.0014 484.066 64.7706C486.145 61.5398 487.497 57.8956 488.027 54.0906C488.558 50.2857 488.255 46.4108 487.139 42.7345C486.024 39.0582 484.122 35.6685 481.567 32.8Z" fill="black"/>
<path d="M461.927 50.4999H461.854L460.544 125.632H463.311L461.927 50.4999Z" fill="#3F3D56"/>
<path d="M427.917 91.8338C438.088 91.8338 446.334 83.5883 446.334 73.4169C446.334 63.2455 438.088 55 427.917 55C417.746 55 409.5 63.2455 409.5 73.4169C409.5 83.5883 417.746 91.8338 427.917 91.8338Z" fill="#9ED3AC"/>
<path opacity="0.1" d="M441.515 61.1158C443.233 65.1343 443.466 69.6326 442.173 73.8071C440.879 77.9815 438.144 81.56 434.455 83.9032C430.766 86.2463 426.364 87.2013 422.035 86.5976C417.707 85.994 413.734 83.8709 410.827 80.6078C411.877 83.0629 413.447 85.2604 415.43 87.0483C417.413 88.8361 419.761 90.1714 422.312 90.9617C424.862 91.752 427.554 91.9784 430.2 91.6251C432.847 91.2719 435.385 90.3475 437.638 88.9159C439.892 87.4844 441.808 85.58 443.253 83.3347C444.697 81.0893 445.637 78.5567 446.005 75.9123C446.374 73.2679 446.163 70.575 445.388 68.0201C444.613 65.4651 443.291 63.1093 441.515 61.1158Z" fill="black"/>
<path d="M427.866 73.4169H427.816L426.905 125.632H428.828L427.866 73.4169Z" fill="#3F3D56"/>
<path d="M69.1669 76.3338C80.3048 76.3338 89.3338 67.3048 89.3338 56.1669C89.3338 45.029 80.3048 36 69.1669 36C58.029 36 49 45.029 49 56.1669C49 67.3048 58.029 76.3338 69.1669 76.3338Z" fill="#9ED3AC"/>
<path opacity="0.1" d="M84.0576 42.6969C85.9388 47.0972 86.194 52.023 84.7776 56.5941C83.3613 61.1652 80.3657 65.0837 76.3261 67.6495C72.2866 70.2153 67.4663 71.2611 62.7267 70.6C57.9871 69.939 53.6369 67.6141 50.4536 64.041C51.6027 66.7293 53.3226 69.1358 55.4941 71.0935C57.6656 73.0512 60.2367 74.5134 63.0294 75.3787C65.822 76.2441 68.7695 76.492 71.6675 76.1052C74.5654 75.7184 77.3447 74.7061 79.8126 73.1386C82.2805 71.5711 84.3782 69.4857 85.9602 67.027C87.5421 64.5683 88.5707 61.795 88.9745 58.8994C89.3782 56.0037 89.1477 53.0549 88.2987 50.2572C87.4497 47.4595 86.0026 44.8798 84.0576 42.6969Z" fill="black"/>
<path d="M69.1114 56.1669H69.0559L68.0586 113.343H70.164L69.1114 56.1669Z" fill="#3F3D56"/>
<path d="M93.3754 87.7507C101.315 87.7507 107.751 81.3147 107.751 73.3754C107.751 65.4361 101.315 59 93.3754 59C85.4361 59 79 65.4361 79 73.3754C79 81.3147 85.4361 87.7507 93.3754 87.7507Z" fill="#9ED3AC"/>
<path opacity="0.1" d="M103.99 63.7738C105.331 66.9104 105.513 70.4216 104.503 73.68C103.493 76.9384 101.358 79.7316 98.4786 81.5605C95.5991 83.3894 92.1631 84.1349 88.7846 83.6637C85.4061 83.1925 82.3053 81.5353 80.0361 78.9883C80.8553 80.9046 82.0812 82.6199 83.6291 84.0154C85.1769 85.4109 87.0097 86.4532 89.0004 87.0701C90.991 87.6869 93.092 87.8636 95.1578 87.5879C97.2235 87.3122 99.2046 86.5906 100.964 85.4732C102.723 84.3559 104.218 82.8694 105.346 81.1168C106.474 79.3641 107.207 77.3873 107.495 75.3232C107.782 73.2592 107.618 71.1572 107.013 69.1629C106.408 67.1687 105.376 65.3298 103.99 63.7738Z" fill="black"/>
<path d="M93.3359 73.3754H93.2963L92.5854 114.132H94.0862L93.3359 73.3754Z" fill="#3F3D56"/>
<path d="M112.75 82.6869C122.277 82.6869 130 74.9638 130 65.4369C130 55.91 122.277 48.1869 112.75 48.1869C103.223 48.1869 95.5 55.91 95.5 65.4369C95.5 74.9638 103.223 82.6869 112.75 82.6869Z" fill="#9ED3AC"/>
<path opacity="0.1" d="M125.487 53.9152C127.096 57.679 127.315 61.8923 126.103 65.8023C124.892 69.7122 122.329 73.064 118.874 75.2587C115.419 77.4533 111.296 78.3479 107.242 77.7824C103.187 77.217 99.4665 75.2284 96.7437 72.1721C97.7266 74.4716 99.1977 76.53 101.055 78.2045C102.912 79.879 105.112 81.1298 107.5 81.87C109.889 82.6102 112.41 82.8222 114.889 82.4913C117.368 82.1605 119.745 81.2946 121.856 79.9538C123.967 78.613 125.761 76.8293 127.115 74.7262C128.468 72.6231 129.348 70.251 129.693 67.7741C130.038 65.2973 129.841 62.775 129.115 60.3819C128.389 57.9889 127.151 55.7823 125.487 53.9152Z" fill="black"/>
<path d="M112.703 65.4368H112.655L111.802 114.343H113.603L112.703 65.4368Z" fill="#3F3D56"/>
<path d="M395.25 83C408.091 83 418.5 72.5906 418.5 59.75C418.5 46.9094 408.091 36.5 395.25 36.5C382.409 36.5 372 46.9094 372 59.75C372 72.5906 382.409 83 395.25 83Z" fill="#9ED3AC"/>
<path opacity="0.1" d="M412.417 44.2208C414.586 49.2938 414.88 54.9727 413.247 60.2426C411.614 65.5125 408.161 70.0301 403.504 72.9882C398.847 75.9462 393.289 77.1519 387.825 76.3897C382.361 75.6276 377.346 72.9474 373.676 68.8279C375.001 71.9273 376.983 74.7016 379.487 76.9586C381.99 79.2156 384.954 80.9014 388.174 81.899C391.394 82.8967 394.792 83.1825 398.133 82.7365C401.474 82.2906 404.678 81.1236 407.523 79.3164C410.368 77.5092 412.787 75.1051 414.611 72.2705C416.434 69.4359 417.62 66.2387 418.086 62.9003C418.551 59.562 418.285 56.1623 417.307 52.9369C416.328 49.7115 414.659 46.7375 412.417 44.2208Z" fill="black"/>
<path d="M395.186 59.7499H395.122L393.972 125.668H396.399L395.186 59.7499Z" fill="#3F3D56"/>
<path d="M770 76C784.083 76 795.5 64.5833 795.5 50.5C795.5 36.4167 784.083 25 770 25C755.917 25 744.5 36.4167 744.5 50.5C744.5 64.5833 755.917 76 770 76Z" fill="#E4E4E4"/>
<path opacity="0.1" d="M788.828 33.4679C791.207 39.0318 791.53 45.2602 789.739 51.0402C787.948 56.8201 784.16 61.7749 779.052 65.0192C773.945 68.2634 767.85 69.5858 761.857 68.7499C755.864 67.9141 750.363 64.9744 746.338 60.4564C747.791 63.8557 749.966 66.8985 752.711 69.3739C755.457 71.8493 758.708 73.6982 762.239 74.7924C765.77 75.8866 769.497 76.2 773.162 75.7109C776.826 75.2218 780.34 73.9419 783.461 71.9598C786.581 69.9778 789.234 67.3409 791.234 64.232C793.234 61.1231 794.535 57.6165 795.045 53.9551C795.556 50.2937 795.264 46.565 794.191 43.0275C793.117 39.4899 791.288 36.2281 788.828 33.4679Z" fill="black"/>
<path d="M769.93 50.4999H769.86L768.599 122.797H771.261L769.93 50.4999Z" fill="#E6E6E6"/>
<path d="M736.917 88.9986C747.088 88.9986 755.334 80.7531 755.334 70.5817C755.334 60.4103 747.088 52.1648 736.917 52.1648C726.746 52.1648 718.5 60.4103 718.5 70.5817C718.5 80.7531 726.746 88.9986 736.917 88.9986Z" fill="#E6E6E6"/>
<path opacity="0.1" d="M750.515 58.2806C752.233 62.2991 752.466 66.7974 751.173 70.9719C749.879 75.1463 747.144 78.7248 743.455 81.068C739.766 83.4111 735.364 84.3661 731.035 83.7624C726.707 83.1587 722.734 81.0357 719.827 77.7726C720.877 80.2277 722.447 82.4252 724.43 84.2131C726.413 86.0009 728.761 87.3362 731.312 88.1265C733.862 88.9168 736.554 89.1431 739.2 88.7899C741.847 88.4367 744.385 87.5123 746.638 86.0807C748.892 84.6492 750.808 82.7448 752.253 80.4995C753.697 78.2541 754.637 75.7215 755.005 73.0771C755.374 70.4327 755.163 67.7398 754.388 65.1849C753.613 62.6299 752.291 60.2741 750.515 58.2806Z" fill="black"/>
<path d="M736.866 70.5817H736.816L735.905 122.797H737.828L736.866 70.5817Z" fill="#E6E6E6"/>
<path d="M704.25 80.1648C717.091 80.1648 727.5 69.7554 727.5 56.9148C727.5 44.0742 717.091 33.6648 704.25 33.6648C691.409 33.6648 681 44.0742 681 56.9148C681 69.7554 691.409 80.1648 704.25 80.1648Z" fill="#E6E6E6"/>
<path opacity="0.1" d="M721.417 41.3856C723.586 46.4586 723.88 52.1375 722.247 57.4074C720.614 62.6773 717.161 67.1949 712.504 70.153C707.847 73.111 702.289 74.3167 696.825 73.5545C691.361 72.7924 686.346 70.1122 682.676 65.9927C684.001 69.0921 685.983 71.8664 688.487 74.1234C690.99 76.3804 693.954 78.0662 697.174 79.0638C700.394 80.0615 703.792 80.3473 707.133 79.9013C710.474 79.4554 713.678 78.2884 716.523 76.4812C719.368 74.674 721.787 72.2699 723.611 69.4353C725.434 66.6007 726.62 63.4035 727.086 60.0651C727.551 56.7268 727.285 53.3271 726.307 50.1017C725.328 46.8763 723.659 43.9023 721.417 41.3856Z" fill="black"/>
<path d="M704.186 56.9147H704.122L702.972 122.832H705.399L704.186 56.9147Z" fill="#E6E6E6"/>
<path d="M1503.25 61.5C1516.09 61.5 1526.5 51.0906 1526.5 38.25C1526.5 25.4094 1516.09 15 1503.25 15C1490.41 15 1480 25.4094 1480 38.25C1480 51.0906 1490.41 61.5 1503.25 61.5Z" fill="#E6E6E6"/>
<path opacity="0.1" d="M1520.42 22.7208C1522.59 27.7938 1522.88 33.4727 1521.25 38.7426C1519.61 44.0125 1516.16 48.5301 1511.5 51.4882C1506.85 54.4462 1501.29 55.6519 1495.83 54.8897C1490.36 54.1276 1485.35 51.4474 1481.68 47.3279C1483 50.4273 1484.98 53.2016 1487.49 55.4586C1489.99 57.7156 1492.95 59.4014 1496.17 60.399C1499.39 61.3967 1502.79 61.6825 1506.13 61.2365C1509.47 60.7906 1512.68 59.6236 1515.52 57.8164C1518.37 56.0092 1520.79 53.6051 1522.61 50.7705C1524.43 47.9359 1525.62 44.7387 1526.09 41.4003C1526.55 38.062 1526.29 34.6623 1525.31 31.4369C1524.33 28.2115 1522.66 25.2375 1520.42 22.7208Z" fill="black"/>
<path d="M1503.19 38.2499H1503.12L1501.97 104.168H1504.4L1503.19 38.2499Z" fill="#E6E6E6"/>
<path d="M241 90.6401C249.284 90.6401 256 83.9244 256 75.6401C256 67.3559 249.284 60.6401 241 60.6401C232.716 60.6401 226 67.3559 226 75.6401C226 83.9244 232.716 90.6401 241 90.6401Z" fill="#E6E6E6"/>
<path opacity="0.1" d="M252.075 65.6213C253.475 68.8942 253.664 72.558 252.611 75.958C251.558 79.3579 249.329 82.2725 246.325 84.1809C243.32 86.0893 239.735 86.8672 236.21 86.3755C232.684 85.8838 229.449 84.1546 227.081 81.4969C227.936 83.4965 229.215 85.2864 230.83 86.7425C232.445 88.1986 234.358 89.2862 236.435 89.9299C238.512 90.5735 240.704 90.7579 242.86 90.4702C245.015 90.1825 247.082 89.4296 248.918 88.2637C250.754 87.0977 252.314 85.5467 253.491 83.7179C254.667 81.8891 255.432 79.8264 255.733 77.6726C256.033 75.5188 255.861 73.3255 255.23 71.2446C254.598 69.1637 253.522 67.245 252.075 65.6213Z" fill="black"/>
<path d="M240.959 75.64H240.918L240.176 118.168H241.742L240.959 75.64Z" fill="#E6E6E6"/>
</svg>
