<svg width="698" height="607" viewBox="0 0 698 607" fill="none" xmlns="http://www.w3.org/2000/svg">
<path d="M584.18 83.9559C634.96 140.516 715.57 283.456 602.81 386.756C455.85 521.396 358.29 377.906 279.33 437.786C279.33 437.786 160.75 506.796 51.3298 386.616C-58.1002 266.436 81.3198 105.236 278.52 19.6059C370.28 -20.2341 509.14 0.365875 584.18 83.9459V83.9559Z" fill="#E5F4DF"/>
<path d="M613.77 468.867C614.599 429.62 529.244 395.986 423.124 393.745C317.004 391.503 230.305 421.503 229.476 460.75C228.647 499.998 314.002 533.631 420.122 535.873C526.242 538.114 612.941 508.115 613.77 468.867Z" fill="#DAE0D1"/>
<path d="M559.198 440.487C635.123 364.561 635.123 241.461 559.198 165.535C483.272 89.6095 360.172 89.6096 284.246 165.535C208.32 241.461 208.32 364.561 284.246 440.487C360.172 516.412 483.272 516.412 559.198 440.487Z" fill="#4F5D91"/>
<path d="M598.59 222.276C590.38 219.326 506.02 190.186 482.06 232.976C456.91 277.876 418.18 262.196 422.46 314.376C426.74 366.556 459.59 402.656 508.77 405.426C565.29 408.606 444.2 470.276 484.12 487.186C585.7 454.346 647.58 335.366 598.59 222.286V222.276Z" fill="#77B585"/>
<path d="M348.22 123.006C348.22 123.006 432.48 134.056 430.13 165.076C427.78 196.096 407.66 186.986 376.68 199.216C345.7 211.446 336.11 195.216 315.38 218.836C294.65 242.466 246.25 219.186 246.25 219.186C246.25 219.186 269.68 155.126 348.22 123.006Z" fill="#77B585"/>
<path d="M227.98 302.446C227.98 302.446 291.78 301.016 305.92 348.446C320.06 395.876 341 381.656 351.72 403.586C354.74 409.756 353 416.786 348.94 423.716C333.35 450.346 296.41 454.506 274.72 432.546C252.82 410.376 229.42 370.796 227.98 302.446Z" fill="#77B585"/>
<g style="mix-blend-mode:multiply" opacity="0.68">
<path d="M568.32 430.706C497.8 511.676 374.99 520.136 294.02 449.616C498.14 475.196 591.99 300.356 549.41 156.406C630.38 226.926 638.84 349.736 568.32 430.706Z" fill="#67AC7C"/>
</g>
<path d="M195.802 481.872C230.425 481.02 258.117 465.062 257.653 446.23C257.19 427.397 228.746 412.821 194.123 413.673C159.5 414.525 131.808 430.483 132.271 449.316C132.735 468.148 161.179 482.725 195.802 481.872Z" fill="#DAE0D1"/>
<path d="M181.78 216.856L180.82 448.696C180.78 457.286 210.87 455.216 210.45 447.986L196.85 213.746L181.78 216.856Z" fill="white"/>
<path d="M181.78 216.856L180.82 448.696C180.78 457.286 210.87 455.216 210.45 447.986L196.85 213.746L181.78 216.856Z" fill="white"/>
<path d="M170.26 213.286L191.95 202.156C197.95 199.076 204.71 202.296 205.49 208.596C206.01 212.786 203.63 217.076 199.66 219.146L177.02 230.926L170.27 213.286H170.26Z" fill="white"/>
<path d="M173.86 220.386L153.14 228.246C152.07 228.656 150.95 228.146 150.64 227.126C150.33 226.106 150.95 224.936 152.02 224.526L172.74 216.666C173.81 216.256 174.93 216.766 175.24 217.786C175.55 218.806 174.93 219.976 173.86 220.386Z" fill="#4D2C1B"/>
<path d="M178.4 192.756L174.34 214.246C174.13 215.356 173.08 216.176 172 216.066C170.92 215.956 170.21 214.966 170.42 213.856L174.48 192.366C174.69 191.256 175.74 190.436 176.82 190.546C177.9 190.656 178.61 191.646 178.4 192.756Z" fill="#4D2C1B"/>
<path d="M192.2 244.556C204.69 265.136 236.79 313.026 275.95 333.466C275.95 333.466 243.12 272.906 195.7 240.616C193.66 239.226 190.87 242.366 192.2 244.556Z" fill="white"/>
<path d="M49.1399 275.106C49.7899 275.076 81.3499 249.856 101.33 240.936C116.95 233.966 138.64 229.106 147.37 227.316C148.22 227.136 148.53 228.486 147.76 229.026C138.59 235.516 113.74 252.876 103.31 257.946C90.3999 264.216 49.1299 275.106 49.1299 275.106H49.1399Z" fill="white"/>
<path d="M179.78 187.086C178.84 189.236 175.83 188.906 175.73 186.656C175.2 174.296 175.33 150.676 182.34 132.846C192.27 107.586 205.02 77.9858 205.02 77.9858C205.02 77.9858 200.59 126.806 197.09 141.716C194.59 152.386 185.02 175.046 179.77 187.096L179.78 187.086Z" fill="white"/>
<path d="M275.95 333.466L261.38 324.446L266.64 318.046L275.95 333.466Z" fill="#006B44"/>
<path d="M205.03 77.9758L197.01 96.8658L203.03 98.2058L205.03 77.9758Z" fill="#006B44"/>
<path d="M183.29 223.156C183.11 228.256 179.52 230.756 175.26 228.736C171.01 226.716 167.7 220.956 167.88 215.856C168.06 210.756 171.65 208.256 175.91 210.276C180.16 212.296 183.47 218.056 183.29 223.156Z" fill="#4D2C1B"/>
<path d="M178.29 221.706L192.05 236.836C192.76 237.616 192.62 238.866 191.74 239.616C190.86 240.366 189.56 240.336 188.85 239.556L175.09 224.426C174.38 223.646 174.52 222.396 175.4 221.646C176.28 220.896 177.58 220.926 178.29 221.706Z" fill="#4D2C1B"/>
<path d="M180.18 224.716C179.53 229.626 175.54 231.976 171.27 229.956C166.99 227.936 164.05 222.316 164.69 217.406C165.34 212.496 169.33 210.146 173.6 212.166C177.88 214.186 180.82 219.806 180.18 224.716Z" fill="#006B44"/>
<path d="M49.1396 275.106L69.0597 260.596L70.9696 268.996L49.1396 275.106Z" fill="#006B44"/>
<path d="M301.22 492.736L233.25 562.886L218.99 476.366L301.22 492.736Z" fill="#DAE0D1"/>
<path d="M233.49 563.266L41.02 522.066L68.1 408.286L260.57 449.496L233.49 563.266Z" fill="#EBF2E4"/>
<path d="M224.35 556.596L48.2402 518.896L73.0102 414.786L249.12 452.486L224.35 556.596Z" fill="#77B585"/>
<path d="M60.5103 462.556L145.54 480.216L157.38 432.846L60.5103 462.556Z" fill="#089B65"/>
<path d="M153.03 481.616L238.06 499.276L249.12 452.486L153.03 481.616Z" fill="#089B65"/>
<path d="M140.34 538.616L225.25 556.586L236.6 505.126L140.34 538.616Z" fill="#089B65"/>
<path d="M48.2402 518.896L130.61 536.526L142.12 488.156L48.2402 518.896Z" fill="#089B65"/>
<path d="M238.91 504.146C238.48 504.276 237.98 504.286 237.44 504.176L61.3199 466.526C59.6899 466.176 58.3699 464.746 58.3599 463.316C58.3599 461.896 59.6699 461.026 61.2999 461.366L237.42 499.016C239.05 499.366 240.37 500.796 240.38 502.226C240.38 503.186 239.79 503.886 238.91 504.146Z" fill="#E4EBDD"/>
<path opacity="0.56" d="M63.7202 450.236L239.84 487.886" stroke="white" stroke-width="1.72" stroke-linecap="round" stroke-linejoin="round"/>
<path opacity="0.56" d="M67.6401 436.816L243.77 474.466" stroke="white" stroke-width="1.72" stroke-linecap="round" stroke-linejoin="round"/>
<path opacity="0.56" d="M71.5698 423.386L247.7 461.036" stroke="white" stroke-width="1.72" stroke-linecap="round" stroke-linejoin="round"/>
<path opacity="0.56" d="M51.4902 503.666L227.61 541.316" stroke="white" stroke-width="1.72" stroke-linecap="round" stroke-linejoin="round"/>
<path opacity="0.56" d="M55.4199 490.246L231.54 527.896" stroke="white" stroke-width="1.72" stroke-linecap="round" stroke-linejoin="round"/>
<path opacity="0.56" d="M59.3398 476.826L235.47 514.476" stroke="white" stroke-width="1.72" stroke-linecap="round" stroke-linejoin="round"/>
<path d="M134.83 540.796C134.23 540.966 133.51 540.936 132.78 540.656C131.18 540.036 130.14 538.456 130.46 537.126L155.24 433.016C155.56 431.686 157.11 431.116 158.7 431.736C160.3 432.356 161.34 433.936 161.02 435.266L136.24 539.376C136.07 540.096 135.53 540.596 134.83 540.796Z" fill="#E4EBDD"/>
<path opacity="0.56" d="M106.5 532.116L131.27 428.006" stroke="white" stroke-width="1.72" stroke-linecap="round" stroke-linejoin="round"/>
<path opacity="0.56" d="M86.0298 527.736L110.81 423.626" stroke="white" stroke-width="1.72" stroke-linecap="round" stroke-linejoin="round"/>
<path opacity="0.56" d="M65.5698 523.356L90.3498 419.246" stroke="white" stroke-width="1.72" stroke-linecap="round" stroke-linejoin="round"/>
<path opacity="0.56" d="M199.76 548.916L224.54 444.806" stroke="white" stroke-width="1.72" stroke-linecap="round" stroke-linejoin="round"/>
<path opacity="0.56" d="M179.3 544.536L204.08 440.426" stroke="white" stroke-width="1.72" stroke-linecap="round" stroke-linejoin="round"/>
<path opacity="0.56" d="M158.84 540.156L183.61 436.046" stroke="white" stroke-width="1.72" stroke-linecap="round" stroke-linejoin="round"/>
<path d="M512.26 536.016L444.29 606.166L430.02 519.646L512.26 536.016Z" fill="#DAE0D1"/>
<path d="M444.53 606.546L252.06 565.346L279.14 451.566L471.61 492.776L444.53 606.546Z" fill="#EBF2E4"/>
<path d="M435.38 599.876L259.27 562.176L284.05 458.066L460.16 495.766L435.38 599.876Z" fill="#77B585"/>
<path d="M271.55 505.836L356.58 523.496L368.42 476.126L271.55 505.836Z" fill="#089B65"/>
<path d="M364.07 524.896L449.1 542.556L460.16 495.766L364.07 524.896Z" fill="#089B65"/>
<path d="M351.38 581.896L436.29 599.856L447.64 548.396L351.38 581.896Z" fill="#089B65"/>
<path d="M259.27 562.176L341.64 579.806L353.16 531.436L259.27 562.176Z" fill="#089B65"/>
<path d="M449.95 547.416C449.52 547.546 449.02 547.556 448.48 547.446L272.36 509.796C270.73 509.446 269.41 508.016 269.4 506.586C269.4 505.166 270.71 504.296 272.34 504.636L448.46 542.286C450.09 542.636 451.41 544.066 451.42 545.496C451.42 546.456 450.83 547.156 449.95 547.416Z" fill="#E4EBDD"/>
<path opacity="0.56" d="M274.75 493.516L450.88 531.166" stroke="white" stroke-width="1.72" stroke-linecap="round" stroke-linejoin="round"/>
<path opacity="0.56" d="M278.68 480.086L454.8 517.736" stroke="white" stroke-width="1.72" stroke-linecap="round" stroke-linejoin="round"/>
<path opacity="0.56" d="M282.61 466.666L458.73 504.316" stroke="white" stroke-width="1.72" stroke-linecap="round" stroke-linejoin="round"/>
<path opacity="0.56" d="M262.52 546.946L438.65 584.596" stroke="white" stroke-width="1.72" stroke-linecap="round" stroke-linejoin="round"/>
<path opacity="0.56" d="M266.45 533.526L442.58 571.176" stroke="white" stroke-width="1.72" stroke-linecap="round" stroke-linejoin="round"/>
<path opacity="0.56" d="M270.38 520.106L446.5 557.756" stroke="white" stroke-width="1.72" stroke-linecap="round" stroke-linejoin="round"/>
<path d="M345.87 584.076C345.27 584.246 344.55 584.216 343.82 583.936C342.22 583.316 341.18 581.736 341.5 580.406L366.28 476.296C366.6 474.966 368.15 474.396 369.74 475.016C371.34 475.636 372.38 477.216 372.06 478.546L347.28 582.656C347.11 583.376 346.57 583.876 345.87 584.076Z" fill="#E4EBDD"/>
<path opacity="0.56" d="M317.53 575.396L342.31 471.286" stroke="white" stroke-width="1.72" stroke-linecap="round" stroke-linejoin="round"/>
<path opacity="0.56" d="M297.07 571.016L321.85 466.906" stroke="white" stroke-width="1.72" stroke-linecap="round" stroke-linejoin="round"/>
<path opacity="0.56" d="M276.61 566.636L301.39 462.526" stroke="white" stroke-width="1.72" stroke-linecap="round" stroke-linejoin="round"/>
<path opacity="0.56" d="M410.8 592.196L435.57 488.086" stroke="white" stroke-width="1.72" stroke-linecap="round" stroke-linejoin="round"/>
<path opacity="0.56" d="M390.34 587.816L415.11 483.706" stroke="white" stroke-width="1.72" stroke-linecap="round" stroke-linejoin="round"/>
<path opacity="0.56" d="M369.87 583.436L394.65 479.326" stroke="white" stroke-width="1.72" stroke-linecap="round" stroke-linejoin="round"/>
<path d="M576.24 310.846C576.24 310.846 586.22 304.816 596.18 315.996C606.14 327.176 619.55 336.446 617.76 345.406C615.97 354.366 578.79 366.336 578.79 366.336C578.79 366.336 570.65 338.646 568.79 328.526C566.93 318.406 576.24 310.836 576.24 310.836V310.846Z" fill="#5E3621"/>
<path d="M624.28 551.056C611.76 544.106 590.26 543.516 576.26 549.736C573.87 550.796 571.86 551.996 570.23 553.276C561.38 550.346 549.36 550.616 541.07 554.306C531.23 558.676 530.39 566.186 539.19 571.066C547.65 575.756 561.92 576.316 571.75 572.466C572.33 572.846 572.94 573.226 573.6 573.586C586.12 580.536 607.62 581.126 621.62 574.906C635.62 568.676 636.81 557.996 624.29 551.046L624.28 551.056Z" fill="#DAE0D1"/>
<path d="M572.38 353.446C582.35 351.896 578.89 343.076 578.89 343.076L568.46 332.076C561.91 331.296 548.35 337.256 536.45 341.626C533.11 341.896 529.87 340.876 527.4 338.776L506.73 321.206L502.47 325.226L518 348.426C523.48 357.526 538.23 356.416 540.71 356.456C540.71 356.456 560.53 355.306 572.39 353.456L572.38 353.446Z" fill="#C95836"/>
<path d="M598.23 553.806L598.38 561.196C598.44 561.966 599.19 566.056 599.52 566.766C600.47 568.806 602.04 569.626 603.56 569.726C605.57 569.866 609.61 566.316 608.18 561.906C606.93 558.056 604.43 551.926 604.43 551.926C601.59 553.226 600.28 553.816 598.23 553.816V553.806Z" fill="#4D2C1B"/>
<path d="M554.24 560.426L564.47 548.286C566.06 547.436 569.02 547.096 571.44 547.496C572.53 547.676 573.1 548.386 573.18 549.476L573.46 551.486C573.82 554.856 574.25 555.966 572.16 557.096L559.74 563.766C557.19 565.786 549.95 564.846 554.25 560.436L554.24 560.426Z" fill="#4D2C1B"/>
<path d="M564.89 549.506C564.89 549.506 559.05 556.736 559.81 557.236C562.97 559.326 570.36 552.456 570.36 552.456C570.36 552.456 566.25 549.126 564.89 549.506Z" fill="#C95836"/>
<path d="M570.36 552.466C567.51 552.486 564.97 553.996 564.63 549.846C564.7 526.576 559.49 506.906 559.55 485.156C559.61 460.726 561.4 460.306 561.55 422.866L584.26 426.486C580.06 453.416 578.28 487.426 578.28 487.426C584.28 513.536 574.74 520.396 570.36 552.476V552.466Z" fill="#C95836"/>
<path d="M604.32 554.016C602.6 558.146 599.2 559.306 598.48 555.196C596.43 532.016 588.82 512.996 586.89 491.326C584.72 466.996 586.46 466.416 583.19 429.106L606.13 430.636C604.41 457.836 605.74 491.866 605.74 491.866C614.1 517.316 605.74 521.666 604.31 554.016H604.32Z" fill="#C95836"/>
<path d="M561.11 392.166C561.11 392.166 545.62 388.596 547.91 474.546C547.91 474.546 564.02 481.226 578.99 485.126C593.11 488.796 602.28 472.166 613.7 476.126C613.7 476.126 606.64 459.696 607.59 451.996C608.54 444.306 613.25 399.336 600.61 397.876C587.97 396.416 561.11 392.176 561.11 392.176V392.166Z" fill="#ADB8A2"/>
<path d="M613.71 476.146C613.71 476.146 612.76 458.216 613.71 450.526C614.66 442.836 612.57 392.666 599.92 391.206C597.03 390.876 594.1 397.086 590.22 396.546C591.1 404.026 592.87 416.296 596.35 436.356C600.99 463.096 592.22 477.856 583.61 485.666C595.21 485.306 604.29 485.666 613.7 476.146H613.71Z" fill="#92A37F"/>
<path d="M497.6 319.806C496.58 321.676 496.97 323.856 498.47 324.656L504.78 326.246C506.28 327.046 505.3 326.346 506.32 324.466C507.34 322.596 508.89 323.126 506.37 320.966L502.09 318.806C501.53 318.526 500.94 318.316 500.31 318.236C499.15 318.076 498.39 318.346 497.59 319.816L497.6 319.806Z" fill="#C95836"/>
<path d="M570.7 330.996C571.84 330.716 573.01 330.606 574.18 330.676C579.59 330.976 587.09 328.936 587.65 329.316L597.75 334.316C617.12 341.086 617.35 346.726 612.08 357.026C612.08 357.026 600.21 374.796 599.69 382.386C599.23 388.946 604.71 399.326 605.75 401.476C607.09 404.256 597.61 420.976 572.41 417.066C552.57 413.986 555.15 405.866 556.01 395.016C556.55 388.186 561.44 370.126 561.56 364.706C561.68 359.286 557.69 355.056 560.93 346.476C564.17 337.886 566.51 332.036 566.51 332.036L570.72 331.016L570.7 330.996Z" fill="#ADB8A2"/>
<path d="M583.33 334.626L582.71 334.016C581.13 334.446 579.72 334.256 579.39 332.696L577.5 323.886C577.16 322.326 578.18 320.696 579.76 320.266L580.23 320.136C581.81 319.706 584.29 320.036 584.63 321.596L587.03 330.886C587.37 332.446 584.92 334.196 583.34 334.626H583.33Z" fill="#C95836"/>
<path d="M578.55 328.596C578.55 328.596 582.4 328.246 584.71 324.276C584.71 324.276 582.48 330.106 579 330.976L578.55 328.586V328.596Z" fill="#BA4141"/>
<path d="M569.9 315.986C569.9 315.986 568.59 325.586 574.16 327.386C579.74 329.186 580.2 309.676 580.2 309.676L569.9 315.986Z" fill="#5E3621"/>
<path d="M585.83 309.996C584.33 307.646 582.16 307.256 580.21 308.646C578.22 307.836 575.89 309.096 574.26 312.226C571.99 316.586 571.59 323.446 573.78 326.876C574.74 328.376 576.19 328.676 577.54 328.686C578.81 328.686 580.09 328.426 581.29 327.946C585.61 326.226 585.71 326.876 587.23 323.966C589.5 319.606 588.01 313.426 585.83 309.986V309.996Z" fill="#C95836"/>
<path d="M583.09 311.596C584.89 315.736 585.62 325.396 585.92 326.666C585.92 326.666 594.71 325.926 593 316.036C590.87 303.736 584.17 310.376 584.17 310.376L583.09 311.586V311.596Z" fill="#5E3621"/>
<path d="M586.19 313.126C581.28 311.406 577.22 310.056 570.12 316.706C569.5 315.676 570.76 312.056 572.26 310.836C575.38 308.266 576.96 306.886 580.44 305.926L581.29 305.786C586.42 304.936 589.27 306.776 590.64 311.676C590.76 312.106 591.75 314.056 591.8 314.416L590.12 313.956C590.51 316.886 589.14 312.566 586.2 313.126H586.19Z" fill="#5E3621"/>
<path d="M576.65 325.836C575.65 325.596 574.7 324.176 574.53 322.656L578.14 323.506C578.32 325.026 577.65 326.066 576.65 325.826V325.836Z" fill="white"/>
<path d="M588.79 321.626C588.95 323.006 587.96 324.256 586.58 324.416C585.2 324.576 583.95 323.586 583.79 322.206C583.63 320.826 584.62 319.576 586 319.416C587.38 319.256 588.63 320.246 588.79 321.626Z" fill="#C95836"/>
<path d="M605.91 401.686C604.88 399.536 599.39 389.156 599.85 382.596C600.15 378.306 602.41 370.596 604.32 364.706C597.71 376.676 597.44 380.976 589.89 382.166C601.37 400.916 592.45 408.416 592.86 415.246C611.97 414.886 607.1 404.146 605.92 401.686H605.91Z" fill="#92A37F"/>
<path d="M552.77 405.876L573.36 408.776C577.38 409.346 579.83 406.946 578.8 403.456L569.44 371.886C568.4 368.396 564.26 365.076 560.24 364.506L539.65 361.606C535.63 361.036 533.18 363.436 534.21 366.926L543.57 398.496C544.61 401.986 548.75 405.306 552.77 405.876Z" fill="#522F1D"/>
<path d="M569.3 392.066C569.42 393.416 570.58 394.486 571.89 394.456L576.42 394.336C577.72 394.306 578.69 393.176 578.57 391.836C578.45 390.486 577.29 389.416 575.98 389.446L571.45 389.566C570.15 389.596 569.18 390.726 569.3 392.066Z" fill="#C95836"/>
<path d="M614.23 346.666C614.23 346.666 625 381.606 617.8 394.506C610.6 407.406 575.81 394.366 575.81 394.366L576.15 389.906L603.72 385.006L601.1 352.026L614.23 346.666Z" fill="#C95836"/>
<path d="M578.68 329.276L576.09 330.086C576.09 330.086 574.83 334.686 576.98 336.446L580.82 333.966C580.82 333.966 578.41 331.706 578.69 329.276H578.68Z" fill="white"/>
<path d="M580.81 333.976L583.22 337.786C583.22 337.786 590.05 335.506 590.13 331.066L587.3 329.586C587.3 329.586 583.92 334.316 580.81 333.976Z" fill="white"/>
<path d="M598.48 555.196C598.48 555.196 599.82 563.146 603.15 562.476C606.48 561.806 604.32 554.016 604.32 554.016L598.48 555.196Z" fill="#C95836"/>
<path d="M613.98 344.036C613.98 344.036 619.48 358.886 621.84 368.046C624.19 377.206 605.7 382.366 600.33 367.586C594.96 352.816 597.6 348.166 597.6 348.166L613.99 344.036H613.98Z" fill="#ADB8A2"/>
<path d="M568.19 331.606C568.19 331.606 554.84 332.846 543.79 338.846C543.79 338.846 550.24 353.166 547.97 356.186L563.26 356.446L568.19 331.606Z" fill="#ADB8A2"/>
<path d="M690.164 425.267C694.108 423.633 695.981 419.111 694.347 415.167C692.714 411.223 688.192 409.35 684.248 410.984C680.303 412.617 678.43 417.139 680.064 421.083C681.698 425.028 686.22 426.901 690.164 425.267Z" fill="#089B65"/>
<path d="M367.038 30.2759C370.834 28.7034 372.637 24.3513 371.064 20.5551C369.492 16.7588 365.14 14.9561 361.343 16.5286C357.547 18.101 355.744 22.4532 357.317 26.2494C358.889 30.0456 363.242 31.8483 367.038 30.2759Z" fill="#089B65"/>
<path d="M7.44 390.566C11.549 390.566 14.88 387.235 14.88 383.126C14.88 379.017 11.549 375.686 7.44 375.686C3.331 375.686 0 379.017 0 383.126C0 387.235 3.331 390.566 7.44 390.566Z" fill="#B9DE50"/>
<path d="M205.03 355.626C201.04 360.246 185.34 360.016 180.79 355.626L181.2 339.666C187.11 343.106 200.56 342.876 204.15 339.686L205.03 355.626Z" fill="#006B44"/>
</svg>
